<svg width="99" height="25" viewBox="0 0 99 25" fill="none" xmlns="http://www.w3.org/2000/svg">
<g clip-path="url(#clip0_3314_252)">
<path d="M68.7797 13.1142C67.9993 12.4999 67.0093 13.4356 67.5946 14.2356L68.7797 15.4142L69.9648 14.2428C70.5574 13.4428 69.5674 12.4999 68.7797 13.1214" fill="#8F8F8F"/>
<path d="M10.2686 1.42149C4.71157 -2.97851 -2.36296 3.73578 1.81383 9.4072L10.2686 17.8001L18.7016 9.43578C22.9435 3.75006 15.8689 -2.97137 10.2686 1.42149ZM14.0985 8.77863C14.0985 9.08578 13.8456 9.33578 13.5349 9.33578H11.3164V11.5286C11.3164 11.8358 11.0635 12.0858 10.7527 12.0858H9.79887C9.48814 12.0858 9.23522 11.8358 9.23522 11.5286V9.33578H7.01675C6.70602 9.33578 6.4531 9.08578 6.4531 8.77863V7.83578C6.4531 7.52863 6.70602 7.27863 7.01675 7.27863H9.23522V5.08578C9.23522 4.77863 9.48814 4.52863 9.79887 4.52863H10.7527C11.0635 4.52863 11.3164 4.77863 11.3164 5.08578V7.27863H13.5349C13.8456 7.27863 14.0985 7.52863 14.0985 7.83578V8.77863Z" fill="#8F8F8F"/>
<path d="M5.83159 20.6786C5.65816 19.6572 2.09561 16.6929 1.25013 15.7358C0.621445 15.0215 0.122832 14.3072 0.0216643 13.3286C-0.101182 12.0858 0.310715 11.2072 1.01889 10.2144L1.22123 10.2786C1.32962 10.5215 1.59699 10.6358 1.77765 10.8072C2.73152 11.7144 3.59867 12.7144 4.53086 13.6429C6.21458 15.3072 9.64707 17.9715 9.64707 20.4858V24.8001H5.83159C5.68707 23.5572 6.0267 21.8644 5.83159 20.6786Z" fill="#8F8F8F"/>
<path d="M10.9044 20.7786L11.0273 19.9072C11.2657 18.9858 11.5837 18.1429 12.2124 17.4072L19.4892 10.2144C20.2769 11.1072 20.6527 12.1358 20.5298 13.3286C20.313 15.4929 16.9456 17.8358 15.4859 19.4501C15.1824 19.7858 14.7199 20.4215 14.7199 20.8786V24.8001H10.9044V20.7786Z" fill="#8F8F8F"/>
<path d="M30.2997 15.2214C30.2997 15.2214 29.1435 13.7857 26.8745 13.7857C24.1791 13.7857 22.3364 16.1143 22.3364 18.7285C22.3364 21.3428 24.1791 23.6714 26.8745 23.6714C29.1291 23.6714 30.4587 22.0428 30.4587 22.0428L31.4704 23.0571C31.4704 23.0571 29.7867 25.0714 26.8745 25.0714C23.2903 25.0714 20.7394 22.2643 20.7394 18.7285C20.7394 15.1928 23.2903 12.3785 26.8745 12.3785C29.7867 12.3785 31.3259 14.2571 31.3259 14.2571L30.2997 15.2214Z" fill="#8F8F8F"/>
<path d="M39.2749 19.5357V24.8643H37.9091V23.6857C37.9091 23.6857 36.9842 25.0714 35.127 25.0714C33.6528 25.0714 32.0775 24.0571 32.0775 22.3C32.0775 20.7214 33.4794 19.6 35.3221 19.6C36.8324 19.6 37.7863 20.2643 37.7863 20.2643V19.8286C37.7863 18.1428 36.3699 17.9214 35.7123 17.9214C34.4694 17.9214 33.2626 18.6071 33.2626 18.6071L32.6412 17.3786C32.6412 17.3786 33.9202 16.5571 35.7123 16.5571C38.1259 16.5571 39.2749 18.0286 39.2749 19.5357ZM37.7863 22.55V21.4143C37.7863 21.4143 36.9697 20.8357 35.6401 20.8357C34.3104 20.8357 33.5661 21.4643 33.5661 22.3071C33.5661 23.3571 34.52 23.7786 35.445 23.7786C36.8974 23.7786 37.7863 22.55 37.7863 22.55Z" fill="#8F8F8F"/>
<path d="M45.9085 16.7643L45.3594 18.1C45.3594 18.1 45.0414 17.9286 44.4199 17.9286C43.1264 17.9286 42.5411 19.2929 42.5411 19.2929V24.8643H41.0525V16.7643H42.4399V18.0072C42.4399 18.0072 43.1698 16.55 44.7307 16.55C45.4027 16.55 45.9158 16.7572 45.9158 16.7572" fill="#8F8F8F"/>
<path d="M53.8141 20.8643C53.8141 21.0215 53.8141 21.1429 53.7996 21.3358H47.1876C47.2743 22.5643 48.4666 23.7 50.0058 23.7C51.545 23.7 52.47 22.5072 52.47 22.5072L53.4094 23.4715C53.4094 23.4715 52.1665 25.0643 50.0058 25.0643C47.52 25.0643 45.7351 23.2072 45.7351 20.8072C45.7351 18.4072 47.3682 16.55 49.8324 16.55C52.1159 16.55 53.8213 18.25 53.8213 20.8643M52.3616 20.1143C52.311 19.2 51.4728 17.9215 49.8252 17.9215C48.0475 17.9215 47.3249 19.2715 47.2165 20.1143H52.3616Z" fill="#8F8F8F"/>
<path d="M57.1887 12.5857H66.2143V15.1571H60.0503V17.4H65.7446V19.95H60.0503V24.8643H57.1887V12.5857Z" fill="#8F8F8F"/>
<path d="M70.1309 15.8571H67.3633V24.8642H70.1309V15.8571Z" fill="#8F8F8F"/>
<path d="M76.8948 18.2357C76.7648 18.1786 76.6419 18.1428 76.5191 18.1214C76.3962 18.1071 76.2589 18.0928 76.0927 18.0928C75.558 18.0928 75.1316 18.2786 74.7992 18.6571C74.4668 19.0357 74.3078 19.5643 74.3078 20.25V24.8571H71.5402V15.85H74.1344L74.2934 16.8071C74.4885 16.4428 74.7703 16.1428 75.1388 15.9071C75.5074 15.6714 75.9771 15.5571 76.5407 15.5571C76.6564 15.5571 76.7864 15.5714 76.931 15.5928C77.0755 15.6143 77.1983 15.6428 77.2995 15.6786L76.8876 18.2286L76.8948 18.2357Z" fill="#8F8F8F"/>
<path d="M82.871 22.0715C82.871 21.9572 82.842 21.8572 82.7842 21.7643C82.7264 21.6715 82.6253 21.5858 82.4807 21.5072C82.3362 21.4286 82.1339 21.3572 81.8737 21.3C81.6136 21.2429 81.2812 21.1929 80.8765 21.1429C80.4501 21.1 80.0455 21 79.6625 20.85C79.2795 20.7 78.9543 20.5143 78.6869 20.2786C78.4123 20.0429 78.2028 19.7715 78.0438 19.4572C77.8848 19.1429 77.8126 18.7858 77.8126 18.3858C77.8126 17.9286 77.9065 17.5215 78.0944 17.1715C78.2823 16.8143 78.5496 16.5215 78.882 16.2858C79.2145 16.05 79.6119 15.8715 80.0599 15.75C80.508 15.6215 80.9849 15.5643 81.4835 15.5643C82.6397 15.5643 83.5358 15.8215 84.1645 16.3429C84.8004 16.8643 85.1834 17.5643 85.3062 18.4429L82.7626 18.8715C82.7047 18.4358 82.5602 18.1215 82.329 17.9143C82.0977 17.7072 81.7942 17.6072 81.4257 17.6072C81.1511 17.6072 80.9126 17.6715 80.7175 17.8C80.5224 17.9286 80.4212 18.1143 80.4212 18.3429C80.4212 18.4429 80.4502 18.5429 80.5007 18.6429C80.5513 18.7429 80.6453 18.8286 80.7898 18.9072C80.9271 18.9858 81.115 19.0572 81.3534 19.1143C81.5919 19.1715 81.8882 19.2143 82.2423 19.25C83.319 19.35 84.1283 19.6358 84.6847 20.1072C85.2412 20.5786 85.5158 21.2286 85.5158 22.0786C85.5158 22.5143 85.4291 22.9143 85.2484 23.2929C85.0677 23.6715 84.8148 23.9929 84.4752 24.2643C84.1428 24.5358 83.7309 24.75 83.2539 24.9072C82.777 25.0643 82.2278 25.1358 81.6208 25.1358C81.0138 25.1358 80.4357 25.05 79.9443 24.8858C79.4457 24.7215 79.0193 24.4858 78.6508 24.1858C78.2895 23.8858 78.0004 23.5286 77.7837 23.1215C77.5669 22.7143 77.4368 22.2715 77.3934 21.7929L79.8215 21.35C79.9154 21.7643 80.0961 22.1143 80.3779 22.4143C80.6525 22.7143 81.0788 22.8572 81.6569 22.8572C82.0038 22.8572 82.2928 22.7858 82.5241 22.65C82.7553 22.5143 82.871 22.3215 82.871 22.0643" fill="#8F8F8F"/>
<path d="M85.7903 15.8571H86.9826V13.5286H89.7503V15.8571H91.3762V18H89.7503V21.4571C89.7503 21.7857 89.8153 22.0643 89.9382 22.2786C90.061 22.4929 90.3067 22.6071 90.668 22.6071C90.7837 22.6071 90.9137 22.6071 91.051 22.5928C91.1883 22.5786 91.3256 22.5643 91.4629 22.5428V24.8714C91.2895 24.9143 91.0872 24.95 90.8559 24.9714C90.6247 24.9928 90.3645 25.0071 90.0755 25.0071C89.6564 25.0071 89.2661 24.95 88.8904 24.8428C88.5146 24.7357 88.1894 24.55 87.9004 24.2928C87.6186 24.0357 87.3945 23.6929 87.2283 23.2643C87.0621 22.8357 86.9754 22.3071 86.9754 21.6786V18H85.7831V15.8571H85.7903Z" fill="#8F8F8F"/>
</g>
<defs>
<clipPath id="clip0_3314_252">
<rect width="99" height="25" fill="white"/>
</clipPath>
</defs>
</svg>
