<svg width="88" height="55" viewBox="0 0 88 55" fill="none" xmlns="http://www.w3.org/2000/svg">
<g clip-path="url(#clip0_3314_232)">
<path d="M7.40654 11.4816C7.40654 11.3359 7.64888 11.1288 7.7549 11.0368C9.84509 9.22673 13.9725 8.87392 16.6231 8.19898C18.4028 7.74646 21.2805 7.18656 20.4702 4.7169C19.4251 1.5186 15.3962 0.751618 13.3742 3.48206C12.9804 4.00361 12.8289 4.64787 12.5108 5.16941C12.4654 5.23844 12.4805 5.30747 12.3594 5.32281C11.6854 4.37176 11.1098 3.45905 10.0268 2.94518C7.56557 1.77937 4.65748 3.28265 3.90017 5.85202L3.67297 7.45501C2.58244 2.60004 8.33046 -0.483217 12.0489 2.45431C15.0781 -1.51864 20.705 -0.513896 22.1969 4.30273C23.9614 9.9707 14.7298 9.68691 11.4657 10.1778C10.0571 10.3849 8.60309 10.661 7.39896 11.474" fill="#8F8F8F"/>
<path d="M6.60379 17.7555C2.91567 18.7372 -0.552836 15.4469 0.0757359 11.6043C0.522552 8.90457 3.24889 8.14526 5.58899 8.65913C3.31704 8.68214 0.795185 9.41077 0.886063 12.1719C0.939075 13.7979 1.81756 15.1324 3.25646 15.8304C4.71808 16.5437 6.18727 16.2906 7.55801 15.4852L9.35285 19.4659C12.1852 16.3519 16.3201 13.5755 20.6823 14.3501C20.1976 14.5188 19.675 14.5188 19.1676 14.6416C15.5931 15.5082 12.2988 18.4534 10.095 21.3296C9.67092 21.8818 9.35285 22.5184 8.87574 23.0323L6.61136 17.7555H6.60379Z" fill="#8F8F8F"/>
<path d="M7.20963 38.6404C7.20963 38.6404 8.92116 33.7317 14.8737 36.1477C14.8737 36.1477 16.1232 36.6923 17.5091 37.8427C18.2589 35.7105 18.789 33.5477 19.2585 32.1748C16.7669 34.2303 13.768 35.6799 11.1704 34.4143C4.50602 31.239 10.5267 22.3574 10.5267 22.3574C12.4503 19.2895 15.9793 16.3673 19.4781 15.9685C21.6895 15.7538 23.6509 16.1833 24.431 17.5562C24.9308 18.3845 25.0747 19.8341 23.6434 22.2501C23.6434 22.2501 22.8936 23.4772 21.8258 23.0094C20.8262 22.5799 21.2578 21.3144 21.894 20.4477C22.5377 19.581 23.9236 17.7786 22.8936 17.5255C22.8936 17.5255 18.0089 16.4824 13.5559 23.6613C13.5559 23.6613 8.13356 31.5689 11.8444 33.4786C14.9494 35.1046 20.4021 28.5316 22.3256 25.8242C22.6134 25.4254 22.8936 24.9958 23.1814 24.6354C23.3935 24.3132 23.8251 24.1675 24.1432 24.4206C24.749 24.8885 25.2489 25.6861 24.9308 26.4761C24.4688 27.7416 23.0754 30.2343 22.4695 31.891C21.4396 34.422 20.6141 37.3825 19.5842 39.9443C20.7277 41.1331 21.4396 41.716 22.2196 42.0765C25.2489 43.4877 27.2103 42.4753 27.854 41.716C28.0661 41.4245 28.4599 40.9567 28.9976 41.1714C29.5656 41.3862 29.3914 42.2145 29.3914 42.2145C28.4978 46.4022 24.4385 45.9343 24.4385 45.9343C23.1208 45.827 21.6592 45.2517 20.5157 44.4541C20.5157 44.4541 19.516 43.8405 18.3043 42.6824C16.7745 45.175 14.7071 46.6553 11.284 45.6812C11.284 45.6812 5.22547 44.2393 7.21721 38.6404M7.82306 42.4293C7.92908 42.575 8.03511 42.7207 8.14113 42.8281C8.24716 42.9355 8.32289 42.9738 8.35318 43.0428C8.42134 43.0812 8.4592 43.1119 8.4592 43.1119C8.31531 42.8588 8.20929 42.5673 8.10327 42.3142C7.99724 42.0228 7.92151 41.739 7.89122 41.4475C7.85335 41.1561 7.82306 40.8723 7.85335 40.5808C7.85335 40.2894 7.92151 40.0363 7.95938 39.7525C8.10327 39.2463 8.27745 38.8168 8.4592 38.5253C8.52736 38.3489 8.60309 38.2339 8.64096 38.1649C8.67882 38.1265 8.67883 38.0958 8.71669 38.0575V38.0191C8.64096 38.0882 8.5728 38.1649 8.50464 38.2339C8.43648 38.3106 8.36075 38.3796 8.29259 38.4486C8.18657 38.5944 8.04268 38.7708 7.97452 38.9165C7.76247 39.2386 7.61858 39.5991 7.51256 39.9289C7.4444 40.2894 7.40654 40.6115 7.40654 40.9413C7.40654 41.2711 7.47469 41.5166 7.55043 41.7697C7.58829 41.8387 7.58829 41.9154 7.61858 41.9537C7.61858 41.9921 7.65645 42.0228 7.65645 42.0611C7.65645 42.0611 7.69432 42.0995 7.69432 42.1301C7.73218 42.2375 7.80034 42.3142 7.83821 42.4216M10.1329 25.7168C10.5948 24.7811 11.0568 23.8761 11.5566 23.0784C12.0564 22.2884 12.5941 21.5981 13.1243 20.9462C13.662 20.3326 14.1921 19.8264 14.6919 19.3586C15.7219 18.4535 16.6534 17.8783 17.2971 17.5178C17.6151 17.3414 17.8651 17.1957 18.0468 17.0806C18.2286 17.0116 18.2967 16.9733 18.2967 16.9733C17.9408 17.0806 17.547 17.2264 17.191 17.3721C16.7972 17.5485 16.4034 17.7326 16.0475 17.9473C15.2978 18.3845 14.5859 18.883 13.9043 19.4966C13.2606 20.1102 12.6547 20.7621 12.1246 21.4447C11.5869 22.1657 11.1628 22.8867 10.8069 23.5769C10.4131 24.2979 10.1329 24.9882 9.88296 25.6018C9.63304 26.2153 9.45886 26.7906 9.34526 27.2584C9.20137 27.7263 9.13321 28.1251 9.05748 28.4166C9.05748 28.5239 9.01962 28.6313 9.01962 28.708C8.98175 28.7771 8.98175 28.8154 8.98175 28.8154C9.04991 28.5239 9.15593 28.2708 9.23166 27.9871C9.33769 27.734 9.40585 27.4809 9.51944 27.1894C9.7012 26.6832 9.91325 26.177 10.1253 25.7091M11.2385 44.3774C13.5559 45.06 15.1993 43.1886 16.411 40.6575C15.7673 39.8599 15.4114 39.2463 14.2375 38.418C12.9879 37.5513 11.8141 37.5513 11.0265 38.0191C9.92082 38.6711 9.56488 39.8599 9.56488 39.8599C8.24716 43.4724 11.2385 44.3697 11.2385 44.3697M15.7673 37.5896C15.8733 37.6587 15.9793 37.7737 16.0854 37.8427C16.1914 37.9501 16.2974 38.0268 16.4034 38.1342C16.5852 38.3183 16.7972 38.4947 16.9714 38.7094C17.0396 38.7784 17.1532 38.8935 17.2213 39.0009C17.3274 39.0699 17.3955 39.1849 17.5091 39.2923C17.547 39.3307 17.5773 39.3997 17.6151 39.438L17.759 39.5838C17.8272 39.6911 17.9029 39.7985 18.0089 39.8752C18.327 40.2741 18.6527 40.6729 19.0086 41.0334C19.1828 41.1791 19.3645 41.3555 19.5463 41.5396C19.6145 41.6086 19.7205 41.6853 19.7962 41.7543C19.9022 41.8617 19.978 41.9384 20.084 42.0074L20.19 42.1148C20.2582 42.1531 20.296 42.1838 20.3339 42.2222C20.4399 42.2989 20.5157 42.3679 20.6217 42.4369C20.8034 42.5443 20.9776 42.69 21.1594 42.7974C21.5532 43.0505 21.9091 43.2653 22.2651 43.4493C22.6589 43.5951 23.0148 43.7715 23.3707 43.8865C23.4768 43.8865 23.5525 43.9249 23.6585 43.9555C23.7645 43.9862 23.8403 43.9939 23.9463 43.9939C24.1205 44.0322 24.3022 44.0629 24.484 44.0629C24.8021 44.1013 25.1277 44.0629 25.4458 44.0246C25.7638 43.9862 26.0516 43.9555 26.3015 43.8482C26.5515 43.7791 26.7635 43.6641 26.9756 43.5567C27.1876 43.4493 27.3315 43.342 27.5133 43.2346C27.801 42.9815 27.9752 42.8051 28.1191 42.6594C28.157 42.5903 28.2251 42.5136 28.2251 42.4829C28.263 42.4446 28.2933 42.4139 28.2933 42.4139C28.0055 42.7054 27.7253 42.9201 27.3694 43.1349C27.3315 43.1349 27.3012 43.1732 27.2633 43.2116C27.1952 43.2116 27.1573 43.2499 27.1194 43.2806C27.0134 43.319 26.9377 43.3496 26.8317 43.388C26.7635 43.4263 26.6499 43.457 26.5817 43.4954C26.4757 43.5337 26.3697 43.5337 26.2637 43.5644C25.9077 43.6718 25.4761 43.7101 25.0898 43.7101C24.8778 43.7101 24.696 43.7101 24.484 43.6718C24.2719 43.6334 24.0523 43.6027 23.8781 43.5644H23.81V43.526H23.7342L23.5904 43.4877L23.4465 43.4187C23.3783 43.4187 23.3404 43.3803 23.3026 43.3803C23.1966 43.342 23.0905 43.3113 23.0148 43.2729C22.9466 43.2346 22.9088 43.2346 22.8709 43.2039L22.727 43.1272C22.621 43.0889 22.515 43.0582 22.4392 43.0198C22.3332 42.9508 22.2575 42.9125 22.1515 42.8741C22.1136 42.8358 22.0833 42.8051 22.0076 42.8051C21.9697 42.7667 21.9394 42.7361 21.9015 42.7361C21.7955 42.6594 21.7198 42.6287 21.6138 42.552C20.9398 42.1148 20.296 41.6469 19.728 41.1407C19.1601 40.6729 18.6602 40.1667 18.2286 39.6988C18.1225 39.5914 18.0165 39.4841 17.9105 39.3767C17.8726 39.3383 17.8423 39.3077 17.8045 39.2693L17.7363 39.2003C17.7363 39.2003 17.6303 39.0929 17.5924 39.0546C17.3804 38.8398 17.1986 38.6941 16.9866 38.51C16.6306 38.2185 16.3429 37.9654 16.1308 37.8274C16.0248 37.7507 15.9188 37.6817 15.8809 37.6433C15.8127 37.605 15.7749 37.605 15.7749 37.605M19.2964 31.2774C19.3645 31.2084 19.4781 31.101 19.5842 31.0243C19.6523 30.9476 19.7583 30.8786 19.8341 30.8095L20.1219 30.5564C20.8337 29.9045 21.5153 29.1835 22.0454 28.5009C22.5831 27.8183 23.0072 27.1664 23.295 26.6985C23.4389 26.4838 23.5071 26.2997 23.6131 26.154C23.6812 26.0083 23.7191 25.9392 23.7191 25.9392C23.5071 26.1923 23.295 26.4454 23.1132 26.6602C23.0451 26.7292 23.0072 26.7676 22.9694 26.8443C22.9012 26.8826 22.8633 26.9516 22.8255 27.0283C22.7497 27.0667 22.7194 27.1357 22.6816 27.1741L22.4998 27.3581C22.3256 27.5729 22.1439 27.7953 21.9621 27.9717C21.8561 28.0791 21.7804 28.1865 21.6743 28.2939C21.6365 28.3322 21.6062 28.3629 21.5305 28.4396C21.4926 28.4779 21.4623 28.5163 21.4244 28.5853C20.7126 29.3446 20.1067 29.9965 19.569 30.5334C19.0313 31.078 18.6072 31.4691 18.2816 31.7606C17.9938 32.052 17.8196 32.2285 17.8196 32.2285C18.0014 32.1211 18.2134 32.0137 18.3876 31.868C18.4558 31.868 18.4936 31.8296 18.5315 31.7989C18.5997 31.7606 18.6375 31.7299 18.6754 31.6916C18.7814 31.6225 18.8874 31.5458 18.9935 31.4768C19.0313 31.4768 19.0616 31.4385 19.1373 31.4078L19.2055 31.3311C19.2055 31.3311 19.2434 31.2927 19.2737 31.2927M23.4692 20.4093C23.2571 20.8081 23.0754 21.1303 22.9012 21.4217C22.8633 21.4908 22.7952 21.5291 22.7573 21.5981V21.6365C22.7573 21.6365 22.7194 21.6748 22.7194 21.7055C22.6816 21.7055 22.6816 21.7439 22.6513 21.7745C22.6134 21.8129 22.5831 21.8819 22.5831 21.9203C22.5831 21.9203 22.5604 21.9433 22.515 21.9893C22.515 21.9893 22.515 22.0276 22.4771 22.0583C22.4089 22.204 22.3332 22.2731 22.3332 22.2731C22.6513 22.089 22.9769 21.8052 23.2268 21.4447C23.5146 21.1226 23.6888 20.7238 23.8327 20.3633C23.9766 20.0028 24.0826 19.6807 24.1205 19.4583C24.1205 19.3125 24.1583 19.2435 24.1583 19.1668V19.0594C24.1205 19.1361 24.1205 19.2052 24.0902 19.2435C24.0599 19.2819 24.0523 19.3125 24.0523 19.3509C24.0145 19.3892 24.0145 19.4199 23.9842 19.4199C23.9463 19.5656 23.8781 19.673 23.8403 19.7804C23.6964 19.9952 23.5904 20.2176 23.4843 20.394" fill="#8F8F8F"/>
<path d="M30.2093 32.2131C30.2093 32.2131 28.1418 37.0527 25.4306 36.1861C25.4306 36.1861 23.1511 35.6799 24.9687 31.0626C24.9687 31.0626 26.5363 27.1281 28.8916 25.7552C29.1415 25.6478 29.4293 25.5404 29.6792 25.5404C29.9972 25.5404 30.4668 25.5404 30.8909 25.6478C31.5649 25.8242 31.7088 26.6909 31.1787 27.0897C30.9666 27.2354 30.7167 27.4118 30.4289 27.6649C30.5728 27.7033 30.7167 27.734 30.8606 27.849C31.2544 28.2478 31.6103 29.3293 30.2169 32.2208M26.2864 30.6638C26.6802 29.9045 27.1043 29.1836 27.5663 28.6083C28.0282 27.9947 28.4902 27.5269 28.8158 27.1971C28.9976 27.013 29.1339 26.9056 29.2475 26.8366C29.2854 26.7983 29.3157 26.7676 29.3535 26.7292C29.3914 26.7292 29.3914 26.6909 29.3914 26.6909C29.2854 26.7599 29.1415 26.8366 29.0355 26.9056C28.9294 26.944 28.7855 27.013 28.6795 27.1204C28.4675 27.2661 28.2479 27.4118 28.0358 27.5882C27.642 27.9104 27.2861 28.2708 27.0059 28.639C26.4 29.3983 26.0441 30.1576 25.7942 30.8019C25.5442 31.4538 25.4382 31.9907 25.4003 32.3512C25.3625 32.5352 25.3625 32.6733 25.3625 32.7883V32.9341C25.4685 32.5736 25.6124 32.1748 25.7942 31.8143C25.938 31.4155 26.1122 31.0166 26.294 30.6562M29.4217 31.7836C29.7398 30.9859 31.1332 27.6649 29.6337 28.5009C29.096 29.0762 28.5659 29.8048 27.9904 30.7022C27.9904 30.7022 25.9608 33.9158 26.6726 34.6368C27.3845 35.3577 28.9219 32.9417 29.4141 31.7836" fill="#8F8F8F"/>
<path d="M41.0086 28.4549C40.5088 29.751 40.327 30.1499 39.7969 31.4537C39.5091 32.1747 38.873 34.0538 39.2971 34.629C39.4788 34.8438 39.7969 35.2043 39.5849 35.6031C39.441 35.9636 39.0169 36.1093 38.6609 36.0019C36.8434 35.5341 36.8812 33.4019 37.1312 31.8832C35.8437 34.1228 34.3897 36.0326 33.2083 35.8945C31.6785 35.7488 31.6785 33.839 31.6785 33.839C31.5346 29.6897 33.4582 26.7292 34.1701 25.7858C34.2761 25.6017 34.4881 25.5327 34.6699 25.6017C34.988 25.6707 35.4499 25.8164 35.8437 26.1463C36.3814 26.5834 36.5253 27.3351 36.1997 27.9486C35.3439 29.613 33.0644 34.1612 33.9883 34.445C34.7002 34.6597 37.4795 29.6437 38.1611 28.3782C38.4792 27.7262 38.8351 27.151 39.2289 26.6064C39.4788 26.2843 39.9029 26.1386 40.2286 26.4224C40.8344 26.8902 41.2964 27.6495 41.0162 28.4472M33.7687 28.9304C33.9807 28.3168 34.2003 27.8106 34.3745 27.4501C34.4806 27.2737 34.5563 27.128 34.5866 27.0206C34.6244 26.9823 34.6244 26.9516 34.6547 26.9132V26.8749C34.5108 27.0206 34.367 27.2354 34.2231 27.4194C34.0792 27.6035 33.9353 27.7799 33.8293 27.964C33.5794 28.3245 33.3976 28.7233 33.2613 29.0838C32.9432 29.8047 32.7614 30.5257 32.6933 31.1086C32.6251 31.6838 32.6554 32.1594 32.6554 32.4431C32.6933 32.6272 32.6933 32.7346 32.7236 32.8036V32.9493C32.8296 32.2974 32.9735 31.5765 33.1553 30.8938C33.337 30.2112 33.5491 29.521 33.7611 28.9457M40.0468 28.8537C39.9029 28.9994 39.759 29.1451 39.653 29.3215C39.5091 29.4673 39.4031 29.613 39.2971 29.751C39.085 30.0732 38.9033 30.403 38.7973 30.7251C38.5095 31.3387 38.3656 31.9523 38.3353 32.4201C38.3353 32.4585 38.3353 32.4892 38.2974 32.5275V33.1027C38.2974 33.1027 38.3353 33.2101 38.3353 33.2485V33.3942C38.3353 33.4632 38.3732 33.5399 38.3732 33.6089C38.3732 33.678 38.411 33.7163 38.411 33.7854C38.411 33.8237 38.4489 33.8544 38.4489 33.8927C38.4868 33.9618 38.4868 34.0001 38.4868 34.0001C38.5549 33.4556 38.6306 32.842 38.7745 32.2667C38.9184 31.6915 39.0926 31.1086 39.2744 30.6024C39.4864 30.0962 39.6682 29.6283 39.8121 29.3369C39.8878 29.1528 39.9559 29.0454 39.9938 28.9764C40.0317 28.869 40.062 28.8307 40.062 28.8307" fill="#8F8F8F"/>
<path d="M50.422 27.918C50.8159 28.6007 50.6038 29.4367 49.9979 29.8662C49.3239 30.334 48.2183 31.2007 47.8926 31.9217C47.7487 32.1364 47.4609 32.2131 47.2868 32.029C46.7869 31.5919 46.2492 30.8019 47.0368 29.8278C48.0668 28.5623 48.8544 28.2402 48.8544 28.2402C46.537 28.708 44.6816 32.3895 43.7955 34.5217C43.7955 34.5217 43.3639 35.7872 42.2658 35.6799C40.9859 35.5725 40.9859 34.0232 40.9859 34.0232C40.9859 33.517 41.0616 32.9724 41.4857 31.6072C42.5914 27.9257 44.1969 26.2307 44.727 25.6861C44.8709 25.5788 45.0451 25.5021 45.2269 25.5404C45.4768 25.6171 45.7949 25.6861 46.1205 25.8625C46.7642 26.223 46.9384 27.0897 46.4764 27.6649C45.7267 28.6007 44.4468 30.5181 43.9091 32.681C43.9091 32.681 44.8028 30.4414 46.5446 28.4549C46.5446 28.4549 47.4004 27.5499 48.1501 27.1204C48.506 26.9056 48.9377 26.8673 49.3239 27.013C49.7859 27.1971 50.1797 27.4809 50.4296 27.918M44.1136 28.2785C44.2575 28.0254 44.3635 27.8413 44.4317 27.6649C44.5377 27.4809 44.6134 27.3045 44.6816 27.1971C44.7195 27.1281 44.7498 27.0897 44.7876 27.013C44.8255 26.9747 44.8255 26.944 44.8558 26.9056C44.8936 26.8366 44.8936 26.7983 44.8936 26.7983C44.6816 26.9823 44.4317 27.2354 44.2196 27.4809C44.0076 27.734 43.8258 27.9871 43.6517 28.2785C43.2957 28.8921 43.0079 29.5057 42.8338 30.0809C42.6217 30.6255 42.4778 31.1624 42.4021 31.5228C42.3642 31.7069 42.3339 31.845 42.2961 31.9524V32.0981C42.4778 31.6992 42.652 31.3388 42.8338 30.9399C43.0155 30.5795 43.1897 30.2573 43.3336 29.9275C43.6214 29.2756 43.9016 28.7387 44.1212 28.2632M49.9904 28.8231C49.5284 28.9688 49.1346 29.1836 48.8468 29.3983C48.5288 29.6131 48.2788 29.8662 48.0971 30.0809C48.0971 30.1193 48.0592 30.1193 48.0289 30.15V30.1883L47.9911 30.2267C47.9532 30.2957 47.9229 30.334 47.885 30.3724C47.8472 30.4798 47.8093 30.5871 47.779 30.6638C47.7109 30.8096 47.7109 30.8786 47.7109 30.8786C47.9229 30.6638 48.1728 30.4107 48.4227 30.196C48.6726 29.9812 48.9226 29.7281 49.1725 29.544C49.6041 29.1452 49.9904 28.8231 49.9904 28.8231Z" fill="#8F8F8F"/>
<path d="M61.5394 35.4651C61.5394 35.4651 61.8575 35.9713 61.5394 36.4392C61.2516 36.907 59.8658 36.6923 59.3281 35.5725C58.3663 33.586 61.2895 29.5747 61.2895 29.5747C59.4341 31.3771 57.5105 34.1996 56.9728 35.0279C56.8668 35.1736 56.685 35.2427 56.5109 35.1736C54.9432 34.5217 55.1174 32.865 55.1174 32.865C55.4733 31.17 57.147 28.8921 57.147 28.8921C54.7917 30.6255 52.4062 34.8132 51.8382 35.8946C51.7322 36.0403 51.5504 36.1094 51.4065 36.0403C49.8768 35.3884 50.0888 33.6243 50.0888 33.6243C50.5886 29.9812 53.2998 26.9056 54.1177 26.0389C54.2919 25.8932 54.5115 25.7858 54.7236 25.8242C55.1174 25.8625 55.4355 25.9316 55.6854 26.0389C56.2912 26.292 56.473 27.1204 56.0413 27.6266C55.0038 28.7847 53.1862 30.9859 53.0499 32.3588C53.0499 32.3588 55.1855 28.7157 59.0403 25.8242C59.5401 25.502 60.1838 25.4637 60.6458 25.8242C60.9639 26.0773 61.2138 26.5068 61.2516 27.2354C61.2516 27.3428 61.2138 27.4502 61.1078 27.5575C60.5019 28.1021 58.1845 30.3724 57.7528 32.2898C57.7528 32.2898 59.9642 29.4366 61.6 27.9947C62.0998 27.5575 62.8496 27.5269 63.3797 27.9564C63.7735 28.2785 64.1294 28.754 64.1673 29.4366C64.1673 29.544 64.1294 29.6514 64.0613 29.7588C63.5236 30.4107 60.8881 33.8774 61.5318 35.4651M52.4138 30.2266C52.7318 29.6821 53.0575 29.1068 53.3756 28.639C53.6633 28.1328 53.9435 27.734 54.1632 27.4118C54.2692 27.2661 54.3449 27.1587 54.4131 27.0897L54.4812 26.944C54.2995 27.0897 54.1632 27.2354 54.0193 27.3811C53.9814 27.4195 53.9133 27.4195 53.8754 27.4502C53.8375 27.4885 53.7997 27.5192 53.7694 27.5575C53.7391 27.5959 53.7012 27.6266 53.6633 27.6649C53.6255 27.7033 53.5952 27.7339 53.5573 27.7723C53.4513 27.918 53.3074 28.0638 53.2014 28.2095C53.1332 28.2785 53.0575 28.3552 53.0272 28.4242C52.959 28.4933 52.9212 28.57 52.8454 28.639C52.4213 29.2526 52.1336 29.7971 51.9518 30.3033C51.7398 30.7712 51.664 31.2084 51.5959 31.4615C51.558 31.7529 51.558 31.8986 51.558 31.8986C51.8079 31.3924 52.0957 30.8172 52.4138 30.2343M57.5862 30.9169C57.9043 30.265 58.2678 29.6514 58.6238 29.1452C59.0176 28.6006 59.3356 28.1711 59.6234 27.8797C59.7294 27.6956 59.8355 27.5882 59.9112 27.5192C59.9491 27.4808 59.9794 27.4502 60.0172 27.4118L60.0551 27.3735C59.843 27.5192 59.6613 27.6649 59.4492 27.7723C59.275 27.918 59.1312 28.0638 58.9494 28.2402C58.6313 28.5316 58.3436 28.8537 58.0936 29.1452C57.6317 29.7971 57.306 30.4414 57.094 30.9859C57.0561 31.055 57.0561 31.1317 57.0258 31.2007C57.0258 31.2697 56.988 31.3081 56.988 31.3848C56.9501 31.4538 56.9501 31.5305 56.9198 31.5688V31.6762C56.9198 31.6762 56.9198 31.7146 56.8819 31.7452V31.9293C56.8819 31.9293 56.8441 32.0367 56.8441 32.075V32.3282C56.8062 32.3972 56.8062 32.4739 56.8062 32.5429C56.8062 32.6119 56.8062 32.6503 56.8441 32.6886V32.8344C56.9122 32.5122 57.0258 32.1824 57.1621 31.8603C57.2682 31.5382 57.4121 31.2084 57.5938 30.9246M61.3652 31.3464C61.6152 30.9169 61.8651 30.5181 62.0392 30.2266C62.1453 30.1193 62.221 30.0119 62.2892 29.9352C62.2892 29.8968 62.327 29.8661 62.327 29.8278C62.3649 29.8278 62.3649 29.7895 62.3649 29.7895C62.1831 29.8968 62.0468 30.0426 61.9029 30.1499C61.759 30.2957 61.653 30.403 61.5091 30.5488C61.2592 30.8402 61.0472 31.0933 60.9033 31.3771C60.5473 31.9523 60.3353 32.5352 60.2596 33.0031C60.1535 33.4709 60.1535 33.8698 60.1914 34.1229V34.307C60.1914 34.307 60.2293 34.376 60.2293 34.4143C60.2293 34.4834 60.2671 34.5217 60.2671 34.5217C60.305 34.2686 60.3732 33.9772 60.4413 33.7241C60.5095 33.4326 60.6231 33.1488 60.6912 32.8957C60.9033 32.3512 61.1532 31.8143 61.3652 31.3464Z" fill="#8F8F8F"/>
<path d="M71.3088 33.8774C71.3088 33.8774 68.9535 37.6356 65.6441 35.6492C63.0086 34.0615 65.2124 29.5824 65.2124 29.5824C65.2124 29.5824 67.5979 24.2365 70.7711 25.8242C70.7711 25.8242 73.0203 26.7599 71.0891 29.9429C69.8093 32.1057 68.2719 31.9293 67.4919 31.6379C66.9921 32.9341 66.8179 34.0539 67.454 34.4527C67.454 34.4527 69.0217 35.3577 70.5212 33.2945C70.5212 33.2945 70.8392 32.7193 71.3088 32.9341C71.6268 33.0798 71.5965 33.4403 71.3088 33.8698M66.2499 30.5181C66.568 29.7971 66.9618 29.1068 67.3556 28.4933C67.7115 27.918 68.1053 27.4118 68.4234 27.082C68.4916 27.013 68.5673 26.9363 68.6051 26.898L68.7793 26.7215C68.7793 26.7215 68.8475 26.6525 68.8854 26.6525C68.8854 26.6525 68.8854 26.6142 68.9232 26.6142C68.8475 26.6525 68.8172 26.6832 68.7415 26.6832C68.6733 26.7215 68.6354 26.7522 68.5597 26.7906C68.5218 26.8289 68.4537 26.8596 68.4158 26.898C68.3477 26.9363 68.3098 26.9746 68.2341 27.0053C68.1659 27.0744 68.0523 27.1511 67.9463 27.2584C67.8403 27.3275 67.7645 27.4042 67.6585 27.5115L67.5525 27.6189L67.4086 27.7646C67.3329 27.8337 67.2647 27.9487 67.1965 28.0177C67.1587 28.0561 67.1284 28.1251 67.0905 28.1635C67.0527 28.2018 67.0224 28.2708 66.9845 28.3092C66.9163 28.3782 66.8406 28.4933 66.7724 28.5623C66.5225 28.9228 66.3105 29.3216 66.1287 29.6437C66.0606 29.8278 65.9848 30.0042 65.9167 30.1499C65.8485 30.334 65.7728 30.4721 65.7349 30.6178C65.591 30.9399 65.5229 31.193 65.4471 31.4461C65.4471 31.5152 65.4093 31.5535 65.4093 31.6302C65.4093 31.6302 65.3967 31.6532 65.3714 31.6992V31.7683C65.3336 31.8756 65.3336 31.983 65.3033 32.0597C65.2654 32.4202 65.2351 32.6043 65.2351 32.6043C65.3033 32.4585 65.4169 32.2821 65.485 32.0981C65.5229 32.029 65.5532 31.914 65.591 31.845C65.591 31.8066 65.6289 31.7759 65.6592 31.6992C65.6592 31.6609 65.6971 31.6302 65.6971 31.5919C65.8031 31.4078 65.8788 31.2314 65.947 31.0473C66.053 30.8709 66.1212 30.6868 66.2348 30.5027M68.1356 30.1883C68.0296 30.3724 67.9539 30.5871 67.8478 30.7635C68.7718 31.0857 69.5215 30.403 70.0971 29.5364C70.7711 28.4933 71.1649 27.2584 70.665 27.1204C69.7033 26.8289 68.1356 30.1883 68.1356 30.1883Z" fill="#8F8F8F"/>
<path d="M77.6172 19.7957C78.8289 17.7402 79.8664 16.5437 80.3284 16.0375C80.4723 15.8918 80.7222 15.8228 80.9343 15.8918C81.1842 15.9608 81.5401 16.0759 81.8582 16.329C82.5701 16.7968 82.7518 17.8092 82.2141 18.4995C82.0021 18.791 81.7143 19.1515 81.3962 19.581M80.6465 20.6624C79.2909 22.6489 77.5112 25.5711 76.2995 28.7157C75.0878 31.7836 74.4819 33.6243 74.8 36.2627C74.8 36.2627 74.906 36.9837 74.4441 37.1678C74.1563 37.2368 73.6262 37.1294 73.3005 36.4775C72.6568 35.1046 72.3009 32.6503 73.8685 28.0331C74.8303 25.1416 75.936 22.7946 76.9356 20.9539M75.8375 25.7858C76.2616 24.7044 76.6933 23.761 77.0114 23.0784C77.1931 22.7563 77.3294 22.5032 77.4052 22.3191C77.4733 22.2117 77.5112 22.1427 77.5112 22.1043C77.5491 22.066 77.5491 22.0353 77.5491 22.0353C77.2991 22.3958 77.0871 22.7563 76.8372 23.0784C76.6251 23.4389 76.4055 23.7993 76.2313 24.1598C75.8375 24.8424 75.5195 25.5327 75.2317 26.1846C74.6637 27.5192 74.2699 28.7464 74.02 29.7971C74.02 29.8355 74.02 29.9045 73.9821 29.9735C73.9821 30.0426 73.9821 30.0809 73.9442 30.1499C73.9442 30.2573 73.9064 30.403 73.8761 30.5104C73.8382 30.7252 73.8004 30.9476 73.7701 31.1623C73.7701 31.2697 73.7701 31.3771 73.7322 31.4538V31.7452C73.6943 31.8143 73.6943 31.9216 73.6943 31.9983V32.2131C73.6565 32.3588 73.6565 32.5045 73.6565 32.6119V33.1181C73.7625 32.5045 73.9064 31.891 74.0503 31.2774C74.1942 30.6638 74.3683 30.0119 74.5501 29.3983C74.9439 28.1328 75.4059 26.8673 75.83 25.7858M78.9728 19.2128C79.1849 18.9981 79.3969 18.745 79.6165 18.4535C79.8286 18.2004 80.0482 17.9473 80.2224 17.6942C80.4041 17.4411 80.5783 17.2263 80.6843 17.0806C80.7904 16.8965 80.8661 16.8275 80.8661 16.8275C80.654 16.9349 80.4723 17.0806 80.3284 17.188C80.1466 17.3337 80.0103 17.4794 79.9043 17.6252C79.6544 17.8783 79.4423 18.1697 79.2985 18.3845C79.1546 18.6376 79.0864 18.8523 79.0485 18.9981C78.9804 19.1438 78.9804 19.2128 78.9804 19.2128" fill="#8F8F8F"/>
<path d="M30.3835 46.6323C28.4523 44.0246 32.4813 40.4045 32.4813 40.4045C32.4813 40.4045 36.3511 36.723 40.2967 37.5436C40.2967 37.5436 45.0981 38.4257 43.0004 44.9987C43.0004 44.9987 42.0234 47.8825 40.1074 49.9917C43.894 54.1794 46.2417 53.19 46.8021 52.515C46.946 52.3463 47.1732 52.0702 47.4912 52.2006C47.8245 52.331 47.7184 52.8142 47.7184 52.8142C47.1959 55.2532 44.8331 54.9847 44.8331 54.9847C42.5687 54.7776 40.2816 52.4153 39.1986 50.8584C37.7219 52.0779 35.7453 52.6915 33.5263 51.4873C32.5494 50.9427 31.5952 49.7846 31.989 47.9055C31.989 47.9055 32.4055 45.9727 34.3215 45.6966C35.253 43.4417 37.0251 41.4245 38.0399 40.182C38.1687 40.0363 38.3732 39.975 38.5398 40.0593C38.5852 40.0823 38.6458 40.0977 38.6837 40.1207C39.1608 40.4121 39.2895 41.0487 38.9563 41.5089C38.3353 42.3679 36.9418 44.1857 36.1088 45.8884C37.3962 46.3716 38.4186 47.5067 39.1002 48.7952C39.6833 47.9745 40.3043 46.9238 40.8647 45.6122C43.273 40.2204 41.2207 38.7478 41.2207 38.7478C39.1456 37.2522 35.0864 40.5195 34.5866 40.9567C31.4059 43.3573 31.4286 45.6276 31.6936 45.9881C31.9208 46.1951 31.9436 47.0235 31.5876 47.1692C30.8833 47.3763 30.3835 46.64 30.3835 46.64M30.5501 44.7992V44.8223V44.7609C30.5501 44.7609 30.5728 44.7225 30.5728 44.6995C30.5728 44.6765 30.5955 44.6382 30.5955 44.5922C30.6183 44.5538 30.6183 44.5078 30.6334 44.4618C30.6334 44.4388 30.6561 44.4004 30.6561 44.3544C30.6788 44.3161 30.694 44.293 30.694 44.247C30.7167 44.2087 30.7394 44.1627 30.7394 44.1396C30.7621 44.1013 30.7773 44.0553 30.8 44.0323C30.8 43.9863 30.8227 43.9479 30.8379 43.9249C30.959 43.6488 31.1105 43.3803 31.2544 43.1426C31.2771 43.1042 31.2923 43.0812 31.315 43.0352L31.3377 42.9969L31.3756 42.9508C31.4134 42.8895 31.4589 42.8281 31.5043 42.7821C31.527 42.7207 31.5649 42.6517 31.6103 42.6134C31.6331 42.575 31.6482 42.552 31.6709 42.529L31.7088 42.4906L31.7315 42.4446C31.8148 42.3219 31.8981 42.2145 31.9814 42.1072C32.0269 42.0688 32.0647 42.0228 32.1102 41.9614C32.148 41.9154 32.1935 41.8541 32.2389 41.8157C32.5948 41.4399 32.9281 41.0794 33.2613 40.7803C33.5945 40.4658 33.9277 40.2127 34.2155 39.9826C34.8214 39.5378 35.3363 39.2463 35.715 39.0392C35.7604 39.0162 35.7983 39.0009 35.8437 38.9779C35.8665 38.9549 35.8816 38.9549 35.9043 38.9395C35.927 38.9395 35.927 38.9165 35.9422 38.9165C36.0255 38.8782 36.0861 38.8552 36.1315 38.8322C36.2148 38.7708 36.2754 38.7478 36.2754 38.7478C35.8589 38.8782 35.4424 39.0392 35.0107 39.277C34.9728 39.3 34.9047 39.3154 34.8668 39.3384C34.8289 39.3614 34.8062 39.3767 34.7835 39.3767L34.7456 39.3997L34.7002 39.4381C34.5942 39.4764 34.4957 39.5454 34.3897 39.6068C34.2837 39.6682 34.1852 39.7525 34.0792 39.8139C33.9732 39.8752 33.8899 39.9443 33.7914 40.021C33.3976 40.2971 33.0189 40.6346 32.6857 40.972C32.3525 41.3095 32.042 41.67 31.7921 42.0228C31.6482 42.1915 31.5422 42.3603 31.421 42.552C31.3756 42.6364 31.315 42.7207 31.2771 42.8051C31.2544 42.8435 31.2393 42.8895 31.2165 42.9355C31.1787 42.9738 31.156 43.0199 31.1332 43.0582C30.9666 43.3727 30.8455 43.6871 30.7394 43.9402C30.6561 44.1933 30.6107 44.4234 30.5955 44.5692C30.5728 44.6305 30.5728 44.6919 30.5728 44.7379V44.7762L30.5501 44.7992ZM33.693 50.9274C33.5869 50.843 33.4885 50.7587 33.3825 50.6743C33.2992 50.5899 33.2158 50.4826 33.1325 50.3829C32.9659 50.1681 32.8448 49.938 32.7615 49.6849C32.716 49.5545 32.6782 49.4088 32.6554 49.2861C32.6327 49.1634 32.6176 49.01 32.6176 48.8872V48.5881C32.6176 48.5881 32.6176 48.5498 32.6403 48.5498V48.4884C32.6403 48.358 32.663 48.2353 32.6782 48.1279C32.7009 48.0052 32.7387 47.8748 32.7615 47.7675C32.7993 47.6601 32.8448 47.5604 32.8826 47.476C32.9281 47.3686 32.9659 47.2843 33.0038 47.1999C33.0492 47.1155 33.0871 47.0542 33.1325 46.9928C33.2386 46.8624 33.3219 46.7857 33.3825 46.7167C33.4052 46.6783 33.4203 46.6553 33.443 46.6553C33.443 46.6323 33.4658 46.6323 33.4658 46.6323C33.4279 46.6323 33.3825 46.6783 33.3597 46.6937C33.3219 46.7167 33.2764 46.732 33.231 46.7781C33.1704 46.8164 33.1098 46.8854 33.0417 46.9698C32.9811 47.0312 32.9205 47.0925 32.8751 47.1615C32.8145 47.2459 32.769 47.3073 32.7312 47.3916C32.5418 47.7061 32.4358 48.0206 32.3979 48.335C32.3601 48.4807 32.3374 48.6495 32.3374 48.7952V49.0253C32.3601 49.0867 32.3601 49.171 32.3752 49.2324C32.4207 49.5085 32.504 49.7616 32.6024 49.9687C32.663 50.0761 32.7312 50.1604 32.7918 50.2448C32.7918 50.2678 32.8145 50.2678 32.8145 50.2831L32.8372 50.3061C32.8372 50.3061 32.8751 50.3445 32.8751 50.3675C32.8978 50.3905 32.9205 50.4059 32.9356 50.4059C32.9584 50.4289 32.9584 50.4442 32.9811 50.4672C33.1022 50.5976 33.231 50.6743 33.337 50.7433C33.3976 50.7817 33.443 50.8047 33.4809 50.8277C33.5188 50.8507 33.5642 50.866 33.6021 50.866C33.6399 50.8891 33.6854 50.9044 33.6854 50.9044M38.4489 49.6235C37.472 47.5834 36.0785 46.9468 36.0785 46.9468C35.9498 46.8854 35.8286 46.8394 35.7074 46.8241C35.6695 46.9698 35.2909 47.9822 34.5184 47.7061C34.314 47.6447 34.1852 47.499 34.1019 47.3303C33.7687 47.7061 33.6248 48.1509 33.6248 48.1509C33.1023 49.5392 33.5869 50.3828 34.0413 50.7203C35.1621 51.541 36.8888 51.3722 38.4489 49.6235ZM35.2909 45.2211C35.5787 44.7762 35.8967 44.293 36.2224 43.8098C36.5556 43.3266 36.8888 42.8435 37.1766 42.4216C37.4871 41.9768 37.737 41.624 37.9263 41.3478C38.1308 41.0717 38.2368 40.926 38.2368 40.926C37.6764 41.4552 37.2145 41.9768 36.8207 42.483C36.4269 42.9892 36.1315 43.4724 35.9043 43.8712C35.8437 43.9786 35.7756 44.0783 35.7377 44.1627C35.6923 44.27 35.6544 44.3544 35.609 44.4388C35.5711 44.5231 35.5257 44.5845 35.5029 44.6689C35.4575 44.7302 35.4424 44.7916 35.4196 44.8606C35.3136 45.0907 35.2757 45.2211 35.2757 45.2211M39.9711 50.4595C39.6606 50.0837 39.388 49.7693 39.1381 49.4471C39.1153 49.4241 39.0926 49.3858 39.0547 49.3398C39.032 49.3168 38.9942 49.2784 38.9714 49.2324C38.9336 49.171 38.8654 49.1097 38.8276 49.0406C38.7215 48.9179 38.6382 48.7875 38.5549 48.6802C38.4716 48.5728 38.411 48.4884 38.3504 48.404C38.2899 48.3197 38.2293 48.2583 38.2066 48.197C38.1232 48.0896 38.0627 48.0282 38.0627 48.0282C38.3353 48.5114 38.6458 49.0176 38.9942 49.5008C39.0775 49.6312 39.1608 49.7539 39.2441 49.8766C39.3274 50.007 39.4334 50.1067 39.5167 50.2371C39.706 50.4902 39.9105 50.7433 40.0998 50.9734C40.2059 51.0808 40.3043 51.2035 40.4103 51.3109C40.5164 51.4336 40.6375 51.541 40.7436 51.6484C40.9708 51.8554 41.1979 52.0702 41.4479 52.2619C41.925 52.6224 42.4021 52.9599 42.9019 53.2053C43.4017 53.4584 43.9016 53.6272 44.356 53.7115C44.8103 53.8189 45.2496 53.8189 45.5828 53.7499C45.7721 53.7269 45.916 53.6885 46.0372 53.6425C46.1584 53.6042 46.2871 53.5581 46.3704 53.5121C46.4158 53.5121 46.4537 53.4891 46.4764 53.4738C46.5143 53.4508 46.537 53.4354 46.5597 53.4354C46.5976 53.4124 46.6203 53.3971 46.6203 53.3971C46.2644 53.5658 45.8706 53.6502 45.4995 53.6732C45.1284 53.6962 44.7498 53.6502 44.3938 53.5658C44.0379 53.4584 43.7047 53.3357 43.3942 53.19C43.0837 53.0443 42.7883 52.8755 42.5232 52.7068C41.9628 52.3463 41.4857 51.9705 41.0465 51.587C40.9405 51.5026 40.8344 51.3953 40.7511 51.3109C40.6905 51.2495 40.6451 51.2035 40.6072 51.1652C40.5694 51.1191 40.5012 51.0578 40.4634 51.0194C40.2967 50.8277 40.1301 50.6436 39.9635 50.4519M41.3418 47.0695C41.3191 47.1155 41.2964 47.1539 41.2813 47.1769L41.2207 47.2996C41.1828 47.361 41.1374 47.4453 41.1146 47.5067C41.0692 47.591 41.0313 47.6524 40.9859 47.7138C40.9632 47.7751 40.9253 47.8442 40.8799 47.9055C40.8193 48.0282 40.7511 48.1356 40.6905 48.243C40.63 48.3504 40.5845 48.4347 40.5467 48.5191C40.5088 48.5574 40.4861 48.6035 40.4634 48.6495C40.4406 48.6878 40.4255 48.7338 40.4028 48.7569C40.38 48.8182 40.3422 48.8872 40.3195 48.9256C40.2589 49.01 40.2362 49.0483 40.2362 49.0483C40.2967 48.9639 40.3649 48.9026 40.4255 48.8182C40.4634 48.7799 40.5088 48.7338 40.5315 48.6955C40.5694 48.6572 40.5921 48.6111 40.6375 48.5651C40.6981 48.4807 40.7587 48.3964 40.8269 48.312C40.8874 48.2046 40.948 48.1203 41.0162 48.0359C41.2661 47.6601 41.4933 47.2766 41.7205 46.8548C41.925 46.4559 42.1143 46.0341 42.2809 45.6122C42.4475 45.2134 42.5914 44.7916 42.6974 44.3928C42.8035 44.0169 42.8868 43.6334 42.9473 43.296C43.0079 42.9355 43.0306 42.644 43.0534 42.3909C43.0761 42.1378 43.0761 41.9308 43.0761 41.7774C43.0761 41.716 43.0761 41.647 43.0534 41.6316V41.5703C43.0534 41.716 43.0306 41.8617 43.0155 42.0151C42.9928 42.1608 42.9776 42.3066 42.9549 42.437C42.9171 42.7284 42.8489 42.9815 42.7883 43.2576C42.7277 43.5107 42.6444 43.7868 42.5838 44.0169C42.5384 44.1396 42.5005 44.27 42.4551 44.3928C42.4324 44.4311 42.4172 44.5001 42.4172 44.5615C42.3945 44.6228 42.3718 44.6689 42.3566 44.7302C42.0234 45.6583 41.6675 46.4329 41.357 47.0695" fill="#8F8F8F"/>
<path d="M47.7033 47.9362C47.7033 47.9362 46.3325 50.1297 44.3938 48.9716C42.8565 48.0436 44.1439 45.4358 44.1439 45.4358C44.1439 45.4358 45.5373 42.3219 47.3852 43.2423C47.3852 43.2423 48.6954 43.7868 47.5745 45.6429C46.8248 46.9084 45.9312 46.801 45.4768 46.6323C45.189 47.3916 45.083 48.0436 45.454 48.2736C45.454 48.2736 46.3704 48.8029 47.2413 47.5987C47.2413 47.5987 47.4306 47.2612 47.6957 47.3916C47.885 47.476 47.8623 47.6831 47.6957 47.9362M44.7497 45.9804C44.9391 45.5585 45.1663 45.1597 45.3935 44.7992C45.5979 44.4618 45.8327 44.1703 46.0145 43.9786L46.1205 43.8712L46.2265 43.7638C46.2265 43.7638 46.2644 43.7255 46.2871 43.7255C46.2871 43.7255 46.2871 43.7025 46.3098 43.7025C46.2719 43.7255 46.2492 43.7408 46.2038 43.7408C46.1659 43.7638 46.1432 43.7868 46.0978 43.8022C46.075 43.8252 46.0372 43.8405 46.0145 43.8635C45.9766 43.8865 45.9539 43.9019 45.9084 43.9249C45.8706 43.9632 45.8024 44.0092 45.7418 44.0706C45.6812 44.109 45.6358 44.155 45.5752 44.2163L45.5146 44.2777C45.5146 44.2777 45.454 44.339 45.4313 44.3621C45.3935 44.4004 45.348 44.4694 45.3026 44.5078C45.2799 44.5308 45.2647 44.5691 45.242 44.5921C45.2193 44.6152 45.2041 44.6535 45.1814 44.6765C45.1435 44.7225 45.0981 44.7839 45.0527 44.8222C44.9088 45.0293 44.78 45.2671 44.6816 45.4512C44.6437 45.5585 44.5983 45.6583 44.5528 45.7503C44.515 45.8577 44.4695 45.942 44.4468 46.0264C44.3635 46.2181 44.3181 46.3639 44.2802 46.5096C44.2802 46.5479 44.2575 46.571 44.2575 46.617C44.2575 46.617 44.2499 46.6298 44.2348 46.6553V46.6937C44.212 46.755 44.212 46.8164 44.1969 46.8624C44.1742 47.0772 44.1515 47.1769 44.1515 47.1769C44.1969 47.0925 44.2575 46.9851 44.2954 46.8854C44.3181 46.8471 44.3332 46.778 44.3559 46.7397C44.3559 46.7167 44.3787 46.7013 44.3938 46.6553C44.3938 46.6323 44.4165 46.617 44.4165 46.594C44.4771 46.4866 44.5225 46.3869 44.5604 46.2795C44.621 46.1721 44.6664 46.0647 44.727 45.965M45.8554 45.7886C45.7948 45.896 45.7494 46.0187 45.6888 46.1261C46.2265 46.3179 46.6657 45.919 46.999 45.4128C47.3928 44.7992 47.62 44.0859 47.3322 44.0016C46.7718 43.8328 45.8554 45.7886 45.8554 45.7886Z" fill="#8F8F8F"/>
<path d="M49.8465 47.8057C49.8465 47.8057 49.7177 49.0252 50.051 49.6158C50.2554 49.9762 50.157 50.2447 49.5284 50.145C48.1122 49.9149 48.2788 47.9361 48.2788 47.9361C48.3167 46.9007 48.6499 44.7761 49.7556 42.1224C49.7556 42.1224 50.8158 39.4686 52.0806 37.5359C52.1411 37.4285 52.2699 37.3901 52.3683 37.3901C52.535 37.4131 52.7849 37.4745 53.0575 37.5972C53.58 37.8503 53.7618 38.5483 53.4513 39.0468C53.0121 39.7448 52.2245 41.0486 51.3914 42.6669C50.3539 44.7531 49.9752 46.4328 49.8313 47.8057M49.9071 43.8711C49.9449 43.7867 49.9677 43.7024 50.0131 43.618C50.0737 43.4493 50.1343 43.2805 50.2024 43.1118C50.263 42.9431 50.3463 42.7743 50.4145 42.6056C50.6871 41.9306 50.9522 41.2557 51.2248 40.6651C51.4974 40.0746 51.7473 39.5684 51.9518 39.2155C51.9973 39.1312 52.0578 39.0468 52.0957 38.9855C52.1184 38.9241 52.1563 38.8551 52.2017 38.8167C52.2245 38.7784 52.2396 38.7323 52.2623 38.7093C52.2623 38.6863 52.285 38.6863 52.285 38.6633C52.1184 38.8321 51.9745 39.0238 51.8458 39.2079C51.7852 39.2922 51.7171 39.3996 51.6565 39.484C51.5959 39.5914 51.5277 39.6757 51.4671 39.7601C51.4066 39.8675 51.3384 39.9518 51.3005 40.0592C51.2399 40.1436 51.1945 40.251 51.1339 40.3353L51.0733 40.4657C51.0355 40.5271 51.0128 40.5731 50.99 40.6114C50.9673 40.6498 50.9522 40.6958 50.9294 40.7342C50.9067 40.7802 50.8916 40.8415 50.8689 40.8799C50.5129 41.5932 50.263 42.2451 50.0812 42.7973C50.0585 42.8587 50.0434 42.9277 50.0207 42.9891C50.0207 43.0274 49.9979 43.0504 49.9979 43.0965C49.9752 43.1195 49.9752 43.1578 49.9601 43.1808C49.9374 43.3035 49.8995 43.4339 49.8768 43.5413C49.8389 43.6487 49.8162 43.7484 49.7935 43.8328C49.7708 43.9401 49.7556 44.0245 49.7329 44.1089C49.6723 44.4003 49.6269 44.5691 49.6269 44.5691C49.6874 44.4233 49.748 44.2776 49.8162 44.1089C49.8616 44.0245 49.8768 43.9401 49.9222 43.8788" fill="#8F8F8F"/>
<path d="M53.6482 44.7991C52.9666 45.7425 51.9821 47.3072 52.0503 48.8795C52.0503 48.8795 52.1109 49.3243 51.9291 49.5084C51.7246 49.7001 51.0127 49.424 50.7856 48.7951C50.3463 47.5296 51.6186 44.8989 52.4062 44.0168C52.4668 43.9325 52.5501 43.8864 52.6561 43.8864C52.8227 43.8634 53.1105 43.8481 53.3831 43.9478C53.7391 44.0705 53.8603 44.4924 53.6558 44.7915M52.3835 44.9065C52.3456 44.9449 52.3229 44.9909 52.2775 45.0292C52.2396 45.0676 52.1942 45.1136 52.1714 45.1596C52.1336 45.198 52.1109 45.244 52.0654 45.3054C52.0427 45.3437 52.0048 45.3897 51.9821 45.4357C51.9442 45.4741 51.9215 45.5201 51.8988 45.5661C51.8761 45.6045 51.8382 45.6505 51.8155 45.6888C51.6262 46.0493 51.505 46.3868 51.4444 46.6552C51.4217 46.7166 51.399 46.801 51.3838 46.8623C51.3838 46.9237 51.3611 46.9697 51.3611 47.0311C51.3384 47.0924 51.3384 47.1384 51.3384 47.1998C51.3157 47.2381 51.3157 47.2842 51.3157 47.3302C51.293 47.4759 51.3157 47.5603 51.3157 47.5603C51.4444 47.2611 51.5656 46.9313 51.7095 46.5939C51.8382 46.2794 51.9821 45.9419 52.1033 45.6428C52.2472 45.3667 52.3759 45.1136 52.4744 44.9525C52.4971 44.9142 52.5198 44.8682 52.535 44.8298C52.5577 44.7838 52.5804 44.7685 52.5804 44.7455C52.6031 44.7224 52.6183 44.7071 52.6183 44.6841C52.535 44.7455 52.4516 44.8298 52.3683 44.9142M53.6255 43.687C53.3756 43.5183 52.9591 43.0581 53.315 41.9383C53.5195 41.225 53.9814 40.9489 54.3146 40.8415C54.6251 40.7342 54.9356 40.8032 55.1856 41.0103C55.3522 41.156 55.4961 41.3708 55.5188 41.7006C55.5188 41.8309 55.4582 41.9076 55.3522 41.9537C54.5797 42.1607 54.0041 42.7973 53.8375 43.572C53.8148 43.6794 53.7164 43.7177 53.6331 43.6794M53.777 42.2528C53.8375 42.1684 53.883 42.061 53.9436 41.9767C54.0041 41.8923 54.0647 41.8079 54.148 41.7466C54.2086 41.6622 54.2919 41.6008 54.3752 41.5548C54.5191 41.4475 54.6857 41.3861 54.7918 41.3477C54.8523 41.3247 54.9205 41.3094 54.9356 41.3094H54.9735L54.9962 41.2864C54.9508 41.2864 54.9129 41.2634 54.8675 41.2634H54.7615C54.6782 41.2404 54.6176 41.2634 54.5343 41.2634C54.3904 41.2864 54.2616 41.3247 54.1405 41.4091C54.0117 41.4705 53.936 41.5548 53.8527 41.6622C53.7694 41.7466 53.7239 41.854 53.6861 41.9383C53.6634 41.9767 53.6633 42.0227 53.6482 42.084C53.6255 42.1224 53.6255 42.1454 53.6255 42.1914V42.5059L53.6482 42.5442C53.6861 42.4369 53.7315 42.3525 53.777 42.2528Z" fill="#8F8F8F"/>
<path d="M61.1305 53.5964C61.1305 53.5964 61.2365 53.8725 61.0093 53.9569C60.7594 53.9953 60.6155 53.7268 60.6155 53.7268C59.9112 52.9062 58.4117 51.8324 56.7911 51.3032C55.958 53.7038 54.8599 55.5522 52.2396 54.8389C52.2396 54.8389 51.0582 54.5245 51.096 53.3203C51.1339 52.1008 52.3835 50.0377 55.0265 49.8229C55.2537 49.7999 55.4809 49.7999 55.7308 49.7999C56.064 48.8718 56.2912 47.9898 56.4806 47.4223C55.8368 48.4117 55.1477 49.171 54.5873 49.1096C53.6936 49.0252 53.6936 47.9055 53.6936 47.9055C53.6558 46.5556 54.5418 43.503 56.3518 43.1655C57.1621 43.0198 57.6014 43.6104 57.8059 44.0936C57.9725 43.7561 58.1618 43.4646 58.3663 43.1655C58.5102 42.9738 58.7601 42.8894 58.9494 43.0351C59.3053 43.3113 59.5704 43.7714 59.4038 44.2393C59.1084 44.9756 58.6541 45.7963 58.2981 46.7627C57.8589 47.7981 57.5256 48.9562 57.1773 50.0683C58.8207 50.5515 60.3807 51.7557 61.1305 53.5888M55.2689 51.0117C54.9962 50.9887 54.7312 51.0117 54.4585 51.0347C52.8379 51.2418 52.0048 52.3156 51.6337 52.9905C51.4671 53.282 51.6337 53.6425 51.967 53.7268C53.527 54.0413 54.5645 52.653 55.2689 51.0117ZM55.9807 52.2312C55.9429 52.2926 55.8974 52.3616 55.8368 52.423C55.799 52.4843 55.7535 52.5457 55.7157 52.6147C55.6324 52.7374 55.5263 52.8448 55.443 52.9522C55.337 53.0595 55.2537 53.1592 55.1477 53.2666C55.1098 53.305 55.0644 53.351 55.0265 53.3893L54.9432 53.4737C54.9432 53.4737 54.9053 53.5121 54.8826 53.5351C54.8826 53.5351 54.8599 53.5581 54.8448 53.5581C54.8448 53.5811 54.822 53.5811 54.822 53.5811C54.7993 53.6041 54.7842 53.6194 54.7387 53.6425C54.6933 53.6808 54.6554 53.7268 54.61 53.7652C54.5721 53.7882 54.504 53.8265 54.4661 53.8495L54.4055 53.9109C54.4055 53.9109 54.3601 53.9339 54.3449 53.9569C54.1556 54.0643 53.989 54.164 53.8224 54.233C53.7845 54.256 53.7391 54.256 53.7012 54.2714C53.6633 54.2944 53.6179 54.3097 53.5725 54.3097C53.5346 54.3327 53.4892 54.3327 53.4664 54.3557C53.4286 54.3557 53.3831 54.3787 53.3604 54.3787C53.3225 54.4018 53.2771 54.4018 53.2544 54.4018C53.209 54.4248 53.1938 54.4248 53.1484 54.4248C53.1256 54.4478 53.0878 54.4478 53.0651 54.4478C53.0423 54.4478 53.0045 54.4478 52.9818 54.4708H52.853C52.8151 54.4938 52.7697 54.4938 52.747 54.4938H52.6637C52.8682 54.5552 53.1029 54.5782 53.3528 54.5552C53.58 54.5321 53.8299 54.4938 54.0571 54.3864C54.2843 54.3021 54.5115 54.1793 54.7009 54.0259C54.8902 53.8802 55.0568 53.7115 55.2007 53.5427C55.4885 53.2053 55.6778 52.8908 55.8065 52.6377C55.8444 52.5073 55.8898 52.4076 55.9277 52.3463C55.9277 52.3079 55.9504 52.2849 55.9504 52.2619L55.9732 52.2389L55.9807 52.2312ZM59.3205 51.725C59.1312 51.5333 58.9267 51.3415 58.6995 51.1805C58.4496 51.0117 58.1997 50.866 57.927 50.7356C57.6544 50.6129 57.3666 50.5055 57.094 50.4441C56.8062 50.3598 56.5336 50.3138 56.2609 50.2754C55.7384 50.2371 55.284 50.2524 54.9508 50.3138C54.7842 50.3368 54.663 50.3598 54.5797 50.3751C54.5418 50.3981 54.4964 50.3981 54.4737 50.4135H54.4358C54.5418 50.4135 54.6251 50.3905 54.7312 50.3905H55.0038C55.1931 50.3905 55.3749 50.4135 55.5415 50.4135C55.8974 50.4595 56.2079 50.4978 56.5184 50.5592C57.1243 50.6896 57.6241 50.8507 58.033 51.0424C58.4496 51.2341 58.7601 51.4029 58.9873 51.5256C59.01 51.5486 59.0251 51.5486 59.0706 51.5639C59.0933 51.5869 59.1084 51.5869 59.1312 51.61C59.169 51.633 59.1917 51.6483 59.2372 51.6713C59.275 51.7173 59.3205 51.7173 59.3205 51.7173M54.9811 45.4281C55.1704 45.0676 55.3749 44.7148 55.5869 44.4387C55.8141 44.1626 56.0413 43.9555 56.2306 43.8481C56.3367 43.8098 56.3973 43.7638 56.4578 43.7408C56.5184 43.7178 56.5411 43.7178 56.5411 43.7178H56.3518C56.2912 43.7408 56.2231 43.7561 56.1625 43.7791C56.0337 43.8175 55.9126 43.8865 55.8065 43.9478C55.7005 44.0092 55.5945 44.0936 55.5188 44.1779L55.496 44.2009C55.496 44.2009 55.4582 44.224 55.4582 44.2393C55.4355 44.2623 55.4203 44.2853 55.3976 44.3007C55.3749 44.3237 55.3597 44.3467 55.337 44.362L55.2764 44.4234C55.1477 44.6151 55.0265 44.7839 54.9205 44.9679C54.8826 45.0523 54.8372 45.1367 54.7993 45.221C54.7766 45.3054 54.7387 45.3898 54.716 45.4511C54.5873 45.7656 54.5494 46.0187 54.5115 46.2104C54.4888 46.3792 54.4888 46.4865 54.4888 46.4865C54.6554 46.1491 54.822 45.7733 54.9886 45.4128M57.5332 44.6535C57.2606 44.4464 56.4503 44.0399 55.496 46.0417C55.496 46.0417 54.4964 48.0435 55.0417 48.2736C55.4582 48.4423 57.2833 45.0753 57.5332 44.6535ZM57.6165 45.6199C57.5938 45.6812 57.5559 45.7656 57.5105 45.8346C57.2379 46.4252 57.0713 46.9467 56.9274 47.3916C56.9046 47.499 56.8668 47.5987 56.8441 47.706C56.8213 47.7674 56.8213 47.8134 56.8062 47.8518C56.8062 47.8978 56.7835 47.9591 56.7835 47.9975C56.7608 48.0819 56.7456 48.1662 56.7229 48.2276C56.7002 48.312 56.7002 48.3733 56.685 48.4347C56.6472 48.6878 56.6472 48.8335 56.6472 48.8335C56.8365 48.3503 57.041 47.7981 57.253 47.2535C57.4575 46.709 57.6695 46.1567 57.8589 45.6735C58.0709 45.1903 58.2527 44.7915 58.3814 44.4924C58.4041 44.454 58.4269 44.408 58.442 44.385C58.442 44.3467 58.4647 44.3007 58.4874 44.2776C58.5102 44.2163 58.5253 44.1703 58.548 44.1319C58.5859 44.0476 58.6086 44.0015 58.6086 44.0015C58.4874 44.1473 58.3814 44.316 58.2754 44.4617C58.2375 44.5461 58.1921 44.6074 58.1315 44.6918C58.0861 44.7762 58.0482 44.8375 58.0028 44.9219C57.9649 45.0063 57.9195 45.0676 57.874 45.152C57.8513 45.1903 57.8361 45.2134 57.8134 45.2594C57.7907 45.3054 57.7756 45.3437 57.7528 45.3668C57.715 45.4511 57.6695 45.5355 57.6317 45.5968" fill="#8F8F8F"/>
<path d="M61.6303 48.7338C61.441 47.43 62.4028 45.1751 63.6069 43.8942C63.6069 43.8942 62.9026 43.8942 61.8196 46.1261C61.4637 46.8241 60.9866 47.9362 60.7821 48.8182C60.6761 49.217 60.2217 49.3858 59.8658 49.1557C59.6992 49.033 59.578 48.8796 59.472 48.7569C59.3053 48.5498 59.222 48.2506 59.2599 47.9745C59.7976 43.365 62.6527 39.2617 63.3948 38.2493C63.5009 38.1035 63.7053 38.0422 63.872 38.1265C64.0386 38.1879 64.2658 38.3183 64.4778 38.487C64.8337 38.8015 64.8716 39.346 64.5838 39.7295C63.7129 40.8263 61.3577 44.086 60.3429 48.1739C60.3429 48.1739 61.6757 44.7456 62.9177 43.5031C63.2888 43.1042 63.872 43.0812 64.3112 43.3957C64.705 43.6871 65.1442 44.155 64.8943 44.6765C64.4172 45.7503 62.4861 48.5728 63.1904 49.1787C63.1904 49.1787 63.4403 49.3474 63.2737 49.6005C63.1298 49.8536 62.6527 49.7463 62.6527 49.7463C62.6527 49.7463 61.759 49.5775 61.6303 48.7338ZM60.8806 44.1243C61.1305 43.6411 61.4031 43.0735 61.6682 42.506C61.956 41.9384 62.2513 41.3862 62.5012 40.903C62.7739 40.3968 63.0238 39.975 63.2055 39.6835C63.2888 39.5378 63.3494 39.4074 63.41 39.323C63.4479 39.2387 63.4933 39.2003 63.4933 39.2003C63.41 39.2847 63.3494 39.369 63.2888 39.4304C63.251 39.4687 63.2282 39.5148 63.1828 39.5531C63.1601 39.5915 63.1222 39.6145 63.0995 39.6605C63.0389 39.7449 62.9783 39.8292 62.9102 39.8906C62.8496 39.975 62.789 40.0593 62.7436 40.1207C62.7057 40.1667 62.683 40.205 62.6603 40.2434C62.6375 40.2664 62.5997 40.3048 62.5769 40.3508C62.5391 40.4351 62.4709 40.4965 62.4331 40.5809C62.327 40.7266 62.2286 40.8723 62.1453 41.0257C61.8121 41.6163 61.5394 42.1608 61.3577 42.6287C61.3198 42.7361 61.2744 42.8588 61.2289 42.9432C61.2062 43.0045 61.1911 43.0505 61.1683 43.1119C61.1456 43.1502 61.1456 43.1963 61.1229 43.2576C61.0623 43.4264 61.0169 43.5951 60.979 43.7178C60.9184 43.9939 60.873 44.1166 60.873 44.1166M62.5239 48.1279V48.2583C62.5239 48.2967 62.5239 48.3197 62.5467 48.3427V48.4271C62.63 48.0512 62.7511 47.6677 62.9177 47.2689C63.0616 46.8931 63.251 46.5096 63.4176 46.1951C63.6069 45.8577 63.7735 45.5816 63.8947 45.3745C63.9553 45.2671 64.0007 45.2057 64.0386 45.1444C64.0613 45.083 64.0764 45.06 64.0764 45.06C63.872 45.2518 63.7053 45.4358 63.5387 45.6506C63.3721 45.8423 63.2282 46.0494 63.1222 46.2412C62.8723 46.64 62.7284 47.0235 62.6224 47.3533C62.577 47.522 62.5618 47.6677 62.5391 47.7981V47.9055C62.5391 47.9055 62.5164 47.9669 62.5164 47.9899V48.1356L62.5239 48.1279Z" fill="#8F8F8F"/>
<path d="M68.2871 39.7218C68.9914 38.5176 69.5972 37.8273 69.8699 37.5282C69.9532 37.4439 70.0971 37.4055 70.2258 37.4439C70.3697 37.4822 70.5817 37.5512 70.7635 37.697C71.18 37.9731 71.286 38.556 70.968 38.9625C70.8392 39.1312 70.6802 39.3383 70.4909 39.5914M70.0516 40.228C69.264 41.3861 68.2265 43.0888 67.5146 44.9219C66.8103 46.709 66.4544 47.7827 66.6437 49.3243C66.6437 49.3243 66.7043 49.7462 66.4392 49.8536C66.2726 49.8996 65.9621 49.8306 65.7728 49.4547C65.4017 48.6571 65.1897 47.2228 66.106 44.5307C66.6664 42.8434 67.3101 41.4782 67.8933 40.4044M67.242 43.2192C67.4919 42.5903 67.7418 42.0381 67.9311 41.6392C68.0372 41.4475 68.1205 41.3018 68.1583 41.1944C68.1962 41.133 68.2189 41.087 68.2189 41.064C68.2416 41.041 68.2416 41.0256 68.2416 41.0256C68.0978 41.2327 67.969 41.4475 67.8251 41.6392C67.6964 41.8463 67.5752 42.0611 67.4692 42.2681C67.242 42.667 67.0527 43.0658 66.8861 43.4493C66.5528 44.2316 66.3256 44.9449 66.1817 45.5585C66.1817 45.5815 66.1817 45.6198 66.159 45.6659C66.159 45.7042 66.159 45.7272 66.1363 45.7732C66.1363 45.8346 66.1136 45.919 66.0984 45.9803C66.0757 46.1107 66.0606 46.2334 66.0379 46.3561C66.0379 46.4175 66.0379 46.4789 66.0151 46.5249V46.6936C65.9924 46.732 65.9924 46.801 65.9924 46.8393V46.9697C65.9697 47.0541 65.9697 47.1385 65.9697 47.1998V47.4913C66.0303 47.1308 66.1136 46.778 66.1969 46.4175C66.2802 46.057 66.3862 45.6812 66.4922 45.3207C66.7194 44.5844 66.9921 43.8481 67.242 43.2115M69.0747 39.392C69.1959 39.2693 69.3246 39.1159 69.4458 38.9471C69.5745 38.8014 69.6957 38.6557 69.8017 38.5023C69.9077 38.3566 70.0062 38.2262 70.0743 38.1418C70.1349 38.0344 70.1804 37.9961 70.1804 37.9961C70.0516 38.0574 69.9532 38.1418 69.8699 38.2032C69.7638 38.2875 69.6805 38.3719 69.62 38.4563C69.4761 38.602 69.3473 38.7707 69.264 38.9011C69.1807 39.0468 69.1428 39.1772 69.1201 39.2616C69.0823 39.346 69.0823 39.3843 69.0823 39.3843" fill="#8F8F8F"/>
<path d="M72.3766 44.6918C72.1494 44.7531 72.0055 44.546 72.0055 44.546C71.7102 44.339 70.3848 44.7531 69.991 45.4511C69.8472 45.7042 70.0516 45.8729 70.2637 46.0416C70.5515 46.2717 71.4072 46.9927 71.18 47.9974C70.9528 49.0482 70.0365 49.3473 69.2034 49.286C68.2644 49.2399 68.3098 48.5036 68.4764 48.4193C68.6885 48.3119 68.7263 48.5267 68.8475 48.5036C69.3473 48.4193 69.7184 48.2275 69.779 47.7673C69.9077 46.6706 68.6127 45.8346 68.6127 45.8346C68.0069 45.1826 68.5067 44.339 69.4003 43.687C70.9377 42.5672 72.1645 43.1808 72.1645 43.1808C73.0127 43.5566 72.8083 44.569 72.369 44.6994M71.9449 43.664C71.7783 43.6027 71.6117 43.5413 71.4072 43.5183C71.2179 43.4799 71.0361 43.4953 70.8241 43.5183C70.6348 43.5566 70.4303 43.6257 70.2637 43.71C70.0971 43.7944 69.9305 43.9018 69.7866 44.0015C69.5139 44.2316 69.3322 44.4617 69.2034 44.6534C69.1428 44.7378 69.0974 44.7991 69.0595 44.8605C69.0595 44.8835 69.0368 44.8988 69.0368 44.9219C69.0141 44.9219 69.0141 44.9449 69.0141 44.9449C69.0974 44.8375 69.2034 44.7531 69.2867 44.6918C69.37 44.6074 69.4761 44.523 69.5594 44.4617C69.726 44.3159 69.9153 44.2086 70.0819 44.1012C70.2485 43.9938 70.4151 43.9325 70.5817 43.8711C70.7256 43.8097 70.8771 43.7637 71.021 43.7254C71.2936 43.664 71.5435 43.664 71.6874 43.664H71.9601H71.9449ZM70.612 47.7443C70.612 47.8287 70.5893 47.9361 70.5515 48.0204C70.5515 48.0588 70.5287 48.0818 70.506 48.1278C70.4833 48.1662 70.4833 48.1892 70.4682 48.2352C70.4454 48.2582 70.4454 48.2966 70.4303 48.3196C70.4076 48.3426 70.3924 48.3579 70.3924 48.3809C70.3924 48.4039 70.3697 48.4039 70.3697 48.4193C70.3697 48.4193 70.3697 48.4423 70.347 48.4423C70.347 48.4653 70.3243 48.4883 70.3243 48.4883C70.3015 48.5113 70.3015 48.5267 70.3015 48.5267C70.3243 48.5036 70.3394 48.4883 70.3621 48.4883C70.3621 48.4883 70.3748 48.4806 70.4 48.4653C70.4 48.4653 70.4227 48.4423 70.4227 48.4269C70.4606 48.4039 70.4833 48.4039 70.506 48.3886L70.5666 48.3272C70.6272 48.2199 70.7105 48.1202 70.7559 48.0128C70.7938 47.8901 70.8165 47.7597 70.8165 47.637C70.8165 47.5142 70.7938 47.3839 70.7559 47.2765C70.7181 47.1691 70.6726 47.0847 70.612 47.0004C70.5666 46.939 70.506 46.87 70.4682 46.8086C70.4303 46.7703 70.3849 46.7243 70.3621 46.7012C70.3394 46.7012 70.3243 46.6782 70.3243 46.6782H70.3015C70.3621 46.7396 70.3848 46.8086 70.4303 46.87C70.453 46.9313 70.4909 47.0004 70.5136 47.0617C70.5363 47.1231 70.559 47.1844 70.5742 47.2535C70.5969 47.3148 70.5969 47.3839 70.6196 47.4452C70.6423 47.5526 70.6423 47.6523 70.6196 47.7597" fill="#8F8F8F"/>
<path d="M81.8582 20.5396C81.7673 20.4706 81.0175 20.5396 80.8434 20.5473C78.0943 20.7467 75.3453 21.0535 72.5962 21.2682C72.0206 21.3143 71.2406 21.4293 70.6878 21.4063C69.7563 21.3756 69.6654 20.1561 70.6499 20.0104C71.0891 19.949 71.7859 19.972 72.263 19.9567C75.3377 19.8723 78.4351 19.903 81.5098 19.7266C81.578 19.7266 81.6461 19.7573 81.7067 19.742C81.8279 19.7189 82.0323 19.2664 82.1384 19.1284C82.464 18.6912 82.9563 18.2694 83.4864 18.1313C84.6905 17.8245 87.7349 18.0239 87.9924 19.6346C88.2272 21.0842 86.1294 21.7514 85.054 21.8742C83.6227 22.0429 82.9184 21.8742 82.0096 20.7467C81.9642 20.693 81.9112 20.5626 81.8657 20.5319" fill="#8F8F8F"/>
<path d="M74.6561 39.5454L72.8234 39.6988L72.7856 39.7755L72.8461 39.8292L74.6637 39.7448C74.6637 39.7448 74.6637 39.7755 74.6637 39.7908C74.6637 39.8292 74.6637 39.8522 74.6258 39.8522L72.8234 40.0209C72.8234 40.0209 72.7856 40.136 72.8234 40.136L74.6637 40.0746C74.6637 40.1283 74.6713 40.205 74.6107 40.2127C73.9897 40.3047 73.3763 40.3967 72.7553 40.4504C72.5281 40.4734 72.2024 40.5348 71.9828 40.4504C71.7556 40.3661 71.6117 40.1283 71.3997 40.0286C69.7714 40.1743 68.1584 40.3354 66.5377 40.4734C66.3257 40.4888 65.9697 40.5731 65.7652 40.5118C65.432 40.4197 65.4245 39.9902 65.7425 39.8599C65.8713 39.8138 65.9167 39.8368 66.0303 39.8292C67.6888 39.7371 69.3549 39.7218 71.0134 39.6451C71.1195 39.6451 71.2406 39.6604 71.3542 39.6451C71.4375 39.6298 71.6117 39.392 71.6799 39.323C72.0737 38.9471 72.5356 39.0929 73.0279 39.0392L74.5652 39.0622V39.2002C74.2245 39.2309 73.8685 39.2539 73.5126 39.2846C73.3081 39.3 73.0128 39.3153 72.8234 39.346C72.778 39.3536 72.725 39.369 72.7325 39.4303L72.7856 39.484L74.6183 39.4227V39.5224L74.6561 39.5454Z" fill="#8F8F8F"/>
</g>
<defs>
<clipPath id="clip0_3314_232">
<rect width="88" height="55" fill="white"/>
</clipPath>
</defs>
</svg>
