<svg width="128" height="39" viewBox="0 0 128 39" fill="none" xmlns="http://www.w3.org/2000/svg">
<g clip-path="url(#clip0_3314_174)">
<path d="M34.3877 8.09772C33.4561 8.21098 32.6703 8.70444 32.1519 9.40824C32.1519 9.40824 31.0259 11.4226 28.1663 11.7704C25.3068 12.1183 23.7676 10.6298 23.5003 10.4194C22.836 9.86935 21.9611 9.58621 21.0458 9.69137C19.2555 9.9017 17.9756 11.5277 18.1862 13.3155C18.3968 15.1033 20.0251 16.3815 21.8153 16.1712C22.7388 16.0579 23.5165 15.5725 24.0349 14.893C24.0349 14.893 24.0349 14.893 24.043 14.893C24.2537 14.626 25.404 12.8301 28.2635 12.4904C31.1231 12.1506 32.6946 13.8494 32.6946 13.8494C33.3589 14.3995 34.2419 14.6988 35.1735 14.5856C36.9637 14.3753 38.2437 12.7492 38.033 10.9614C37.8386 9.30307 36.4291 8.08154 34.7927 8.08154C34.6631 8.08154 34.5335 8.08154 34.4039 8.10581" fill="#8F8F8F"/>
<mask id="mask0_3314_174" style="mask-type:luminance" maskUnits="userSpaceOnUse" x="18" y="8" width="21" height="9">
<path d="M34.3877 8.09772C33.4561 8.21098 32.6703 8.70444 32.1519 9.40824C32.1519 9.40824 31.0259 11.4226 28.1663 11.7704C25.3068 12.1183 23.7676 10.6298 23.5003 10.4194C22.836 9.86935 21.9611 9.58621 21.0458 9.69137C19.2555 9.9017 17.9756 11.5277 18.1862 13.3155C18.3968 15.1033 20.0251 16.3815 21.8153 16.1712C22.7388 16.0579 23.5165 15.5725 24.0349 14.893C24.0349 14.893 24.0349 14.893 24.043 14.893C24.2537 14.626 25.404 12.8301 28.2635 12.4904C31.1231 12.1506 32.6946 13.8494 32.6946 13.8494C33.3589 14.3995 34.2419 14.6988 35.1735 14.5856C36.9637 14.3753 38.2437 12.7492 38.033 10.9614C37.8386 9.30307 36.4291 8.08154 34.7927 8.08154C34.6631 8.08154 34.5335 8.08154 34.4039 8.10581" fill="white"/>
</mask>
<g mask="url(#mask0_3314_174)">
<path d="M37.9403 5.69578L16.9702 8.19287L18.2325 18.7639L39.2026 16.2668L37.9403 5.69578Z" fill="#8F8F8F"/>
</g>
<path d="M26.1573 16.5028C25.7442 17.3442 25.7361 18.2745 26.0439 19.0834C26.0439 19.0834 27.1294 21.1301 25.8657 23.7107C24.602 26.2913 22.5201 26.7847 22.1961 26.898C21.3779 27.1569 20.6569 27.7312 20.2519 28.5645C19.458 30.1824 20.1304 32.1401 21.7505 32.9248C23.3707 33.7175 25.3229 33.0461 26.1249 31.4282C26.53 30.5949 26.5462 29.6808 26.2464 28.8719C26.133 28.5483 25.2419 26.6068 26.5138 24.0262C27.7775 21.4456 30.0619 21.0492 30.0619 21.0492C30.8963 20.7903 31.6253 20.2079 32.0385 19.3666C32.8323 17.7486 32.16 15.791 30.5398 14.9982C30.0781 14.7717 29.592 14.6665 29.106 14.6665C27.899 14.6665 26.7325 15.3379 26.1654 16.4948" fill="#8F8F8F"/>
<mask id="mask1_3314_174" style="mask-type:luminance" maskUnits="userSpaceOnUse" x="19" y="14" width="14" height="20">
<path d="M26.1573 16.5028C25.7442 17.3442 25.7361 18.2745 26.0439 19.0834C26.0439 19.0834 27.1294 21.1301 25.8657 23.7107C24.602 26.2913 22.5201 26.7847 22.1961 26.898C21.3779 27.1569 20.6569 27.7312 20.2519 28.5645C19.458 30.1824 20.1304 32.1401 21.7505 32.9248C23.3707 33.7175 25.3229 33.0461 26.1249 31.4282C26.53 30.5949 26.5462 29.6808 26.2464 28.8719C26.133 28.5483 25.2419 26.6068 26.5138 24.0262C27.7775 21.4456 30.0619 21.0492 30.0619 21.0492C30.8963 20.7903 31.6253 20.2079 32.0385 19.3666C32.8323 17.7486 32.16 15.791 30.5398 14.9982C30.0781 14.7717 29.592 14.6665 29.106 14.6665C27.899 14.6665 26.7325 15.3379 26.1654 16.4948" fill="white"/>
</mask>
<g mask="url(#mask1_3314_174)">
<path d="M22.0271 9.40399L11.9095 30.0465L30.2303 39.0015L40.348 18.359L22.0271 9.40399Z" fill="#8F8F8F"/>
</g>
<path d="M10.0126 8.68826C8.63543 9.85316 8.47342 11.916 9.64802 13.2832C10.2556 13.995 11.1062 14.3753 11.9729 14.4157C11.9729 14.4157 14.2817 14.2377 16.1529 16.43C18.0161 18.6142 17.6435 20.7175 17.6111 21.0573C17.522 21.9148 17.765 22.7965 18.3644 23.5003C19.539 24.8756 21.5966 25.0374 22.9738 23.8644C24.3428 22.6995 24.5129 20.6366 23.3383 19.2695C22.7388 18.5657 21.8964 18.1855 21.0377 18.1369C20.6975 18.1126 18.5589 18.1531 16.6957 15.9608C14.8244 13.7766 15.3753 11.5277 15.3753 11.5277C15.4725 10.6621 15.2294 9.76417 14.6219 9.05229C13.9738 8.29995 13.0584 7.90356 12.135 7.90356C11.3816 7.90356 10.6363 8.16243 10.0207 8.68017" fill="#8F8F8F"/>
<mask id="mask2_3314_174" style="mask-type:luminance" maskUnits="userSpaceOnUse" x="8" y="7" width="17" height="18">
<path d="M10.0126 8.68826C8.63543 9.85316 8.47342 11.916 9.64802 13.2832C10.2556 13.995 11.1062 14.3753 11.9729 14.4157C11.9729 14.4157 14.2817 14.2377 16.1529 16.43C18.0161 18.6142 17.6435 20.7175 17.6111 21.0573C17.522 21.9148 17.765 22.7965 18.3644 23.5003C19.539 24.8756 21.5966 25.0374 22.9738 23.8644C24.3428 22.6995 24.5129 20.6366 23.3383 19.2695C22.7388 18.5657 21.8964 18.1855 21.0377 18.1369C20.6975 18.1126 18.5589 18.1531 16.6957 15.9608C14.8244 13.7766 15.3753 11.5277 15.3753 11.5277C15.4725 10.6621 15.2294 9.76417 14.6219 9.05229C13.9738 8.29995 13.0584 7.90356 12.135 7.90356C11.3816 7.90356 10.6363 8.16243 10.0207 8.68017" fill="white"/>
</mask>
<g mask="url(#mask2_3314_174)">
<path d="M17.7653 0.00323379L-0.000671387 15.1292L15.2249 32.963L32.9909 17.8371L17.7653 0.00323379Z" fill="#8F8F8F"/>
</g>
<path d="M37.2959 18.5494V20.8712H40.6415V27.4804H42.9664V20.8712H46.3282V18.5494H37.2959Z" fill="#8F8F8F"/>
<mask id="mask3_3314_174" style="mask-type:luminance" maskUnits="userSpaceOnUse" x="37" y="18" width="10" height="10">
<path d="M37.2959 18.5494V20.8712H40.6415V27.4804H42.9664V20.8712H46.3282V18.5494H37.2959Z" fill="white"/>
</mask>
<g mask="url(#mask3_3314_174)">
<path d="M46.2722 17.8779L36.6269 18.5988L37.3427 28.1501L46.988 27.4293L46.2722 17.8779Z" fill="#8F8F8F"/>
</g>
<path d="M51.3101 18.5494C50.5 18.5494 49.7548 18.7517 49.0662 19.1481C48.3776 19.5445 47.8349 20.0865 47.438 20.7741C47.041 21.4617 46.8385 22.2059 46.8385 23.0149C46.8385 23.8239 47.041 24.5681 47.438 25.2557C47.8349 25.9433 48.3776 26.4853 49.0662 26.8817C49.7548 27.2862 50.5 27.4804 51.3101 27.4804H56.3164V25.1586H51.3101C51.0428 25.1586 50.7917 25.1101 50.5405 25.0211C50.2975 24.924 50.0788 24.7946 49.8925 24.6328C49.7062 24.471 49.5442 24.2769 49.4226 24.0504H55.5792V21.9875H49.4226C49.609 21.6478 49.8682 21.3727 50.2084 21.1786C50.5405 20.9763 50.9132 20.8792 51.3101 20.8792H56.3164V18.5575H51.3101V18.5494Z" fill="#8F8F8F"/>
<mask id="mask4_3314_174" style="mask-type:luminance" maskUnits="userSpaceOnUse" x="46" y="18" width="11" height="10">
<path d="M51.3101 18.5494C50.5 18.5494 49.7548 18.7517 49.0662 19.1481C48.3776 19.5445 47.8349 20.0865 47.438 20.7741C47.041 21.4617 46.8385 22.2059 46.8385 23.0149C46.8385 23.8239 47.041 24.5681 47.438 25.2557C47.8349 25.9433 48.3776 26.4853 49.0662 26.8817C49.7548 27.2862 50.5 27.4804 51.3101 27.4804H56.3164V25.1586H51.3101C51.0428 25.1586 50.7917 25.1101 50.5405 25.0211C50.2975 24.924 50.0788 24.7946 49.8925 24.6328C49.7062 24.471 49.5442 24.2769 49.4226 24.0504H55.5792V21.9875H49.4226C49.609 21.6478 49.8682 21.3727 50.2084 21.1786C50.5405 20.9763 50.9132 20.8792 51.3101 20.8792H56.3164V18.5575H51.3101V18.5494Z" fill="white"/>
</mask>
<g mask="url(#mask4_3314_174)">
<path d="M56.2637 17.8454L46.1741 18.5995L46.8923 28.1831L56.9819 27.4291L56.2637 17.8454Z" fill="#8F8F8F"/>
</g>
<path d="M57.4424 18.5494V23.0149C57.4424 23.8239 57.6449 24.5681 58.0418 25.2557C58.4388 25.9433 58.9815 26.4853 59.6701 26.8817C60.3587 27.2862 61.1039 27.4804 61.914 27.4804H65.9158V25.1586H61.914C61.5252 25.1586 61.1606 25.0616 60.8366 24.8674C60.5126 24.6733 60.2452 24.4144 60.0589 24.0908C59.8645 23.7672 59.7754 23.4032 59.7754 23.0149V20.8712H65.9239V18.5494H57.4505H57.4424Z" fill="#8F8F8F"/>
<mask id="mask5_3314_174" style="mask-type:luminance" maskUnits="userSpaceOnUse" x="57" y="18" width="9" height="10">
<path d="M57.4424 18.5494V23.0149C57.4424 23.8239 57.6449 24.5681 58.0418 25.2557C58.4388 25.9433 58.9815 26.4853 59.6701 26.8817C60.3587 27.2862 61.1039 27.4804 61.914 27.4804H65.9158V25.1586H61.914C61.5252 25.1586 61.1606 25.0616 60.8366 24.8674C60.5126 24.6733 60.2452 24.4144 60.0589 24.0908C59.8645 23.7672 59.7754 23.4032 59.7754 23.0149V20.8712H65.9239V18.5494H57.4505H57.4424Z" fill="white"/>
</mask>
<g mask="url(#mask5_3314_174)">
<path d="M65.8637 17.9227L56.7758 18.6019L57.4885 28.113L66.5765 27.4338L65.8637 17.9227Z" fill="#8F8F8F"/>
</g>
<path d="M74.454 18.5494V22.1493H69.472V18.5494H67.1471V27.4804H69.472V24.2041H74.454V27.4804H76.7789V18.5494H74.454Z" fill="#8F8F8F"/>
<mask id="mask6_3314_174" style="mask-type:luminance" maskUnits="userSpaceOnUse" x="67" y="18" width="10" height="10">
<path d="M74.454 18.5494V22.1493H69.472V18.5494H67.1471V27.4804H69.472V24.2041H74.454V27.4804H76.7789V18.5494H74.454Z" fill="white"/>
</mask>
<g mask="url(#mask6_3314_174)">
<path d="M76.7333 17.8246L66.4902 18.5901L67.2097 28.1899L77.4528 27.4243L76.7333 17.8246Z" fill="#8F8F8F"/>
</g>
<path d="M87.9985 22.1493C87.8608 22.1493 87.8041 22.1089 87.796 21.9309C87.7231 20.9116 86.8644 20.0541 85.2929 20.0541C83.6403 20.0541 82.4009 21.1543 82.4009 23.0392C82.4009 24.9241 83.6403 26.0243 85.2929 26.0243C86.8482 26.0243 87.6988 25.28 87.796 24.285C87.8122 24.0908 87.8446 24.0585 88.0147 24.0585H88.7276C88.8005 24.0585 88.9301 24.0342 88.9301 24.1636C88.9301 25.6845 87.5854 26.995 85.2848 26.995C82.9842 26.995 81.2749 25.5146 81.2749 23.0392C81.2749 20.5638 83.0166 19.0834 85.2848 19.0834C87.715 19.0834 88.9301 20.6366 88.9301 22.0199C88.9301 22.0846 88.8815 22.1493 88.7357 22.1493H87.9904H87.9985Z" fill="#8F8F8F"/>
<path d="M95.9616 24.2526C95.9616 26.0485 94.6736 26.995 93.0859 26.995C91.4981 26.995 90.2101 26.0485 90.2101 24.2526C90.2101 22.4567 91.4981 21.5103 93.0859 21.5103C94.6736 21.5103 95.9616 22.4567 95.9616 24.2526ZM93.0859 22.481C92.0085 22.481 91.3361 23.2253 91.3361 24.2526C91.3361 25.28 92.0166 26.0243 93.0859 26.0243C94.1552 26.0243 94.8356 25.2962 94.8356 24.2526C94.8356 23.2091 94.1471 22.481 93.0859 22.481Z" fill="#8F8F8F"/>
<path d="M100.304 22.481C99.4206 22.481 98.7321 22.9906 98.489 23.6782V26.6552C98.489 26.728 98.3513 26.8736 98.2703 26.8736H97.5818C97.5088 26.8736 97.363 26.7361 97.363 26.6552V21.8581C97.363 21.7853 97.5007 21.6397 97.5818 21.6397H98.1083C98.1974 21.6397 98.2784 21.7448 98.3108 21.8581L98.489 22.3596H98.5376L98.5862 22.2949C98.9184 21.8743 99.6069 21.5183 100.36 21.5183C101.891 21.5183 102.531 22.3111 102.531 23.5569V26.6552C102.531 26.728 102.394 26.8736 102.313 26.8736H101.624C101.551 26.8736 101.405 26.7361 101.405 26.6552V23.5569C101.405 22.8935 101 22.481 100.296 22.481H100.304Z" fill="#8F8F8F"/>
<path d="M106.946 22.481C106.063 22.481 105.375 22.9906 105.132 23.6782V26.6552C105.132 26.728 104.994 26.8736 104.913 26.8736H104.224C104.151 26.8736 104.006 26.7361 104.006 26.6552V21.8581C104.006 21.7853 104.143 21.6397 104.224 21.6397H104.751C104.84 21.6397 104.921 21.7448 104.953 21.8581L105.132 22.3596H105.18L105.229 22.2949C105.561 21.8743 106.25 21.5183 107.003 21.5183C108.534 21.5183 109.174 22.3111 109.174 23.5569V26.6552C109.174 26.728 109.036 26.8736 108.955 26.8736H108.267C108.194 26.8736 108.048 26.7361 108.048 26.6552V23.5569C108.048 22.8935 107.643 22.481 106.938 22.481H106.946Z" fill="#8F8F8F"/>
<path d="M115.962 25.636C116.027 25.7007 116.051 25.7492 116.051 25.8382C116.051 25.9676 115.987 26.0162 115.898 26.1052C115.339 26.6552 114.553 26.995 113.524 26.995C111.936 26.995 110.519 26.0485 110.519 24.2526C110.519 22.6994 111.628 21.5103 113.419 21.5103C115.209 21.5103 116.141 22.6185 116.141 23.921C116.141 24.2526 116.1 24.5681 116.1 24.5681H111.669C111.774 25.4499 112.552 26.0243 113.524 26.0243C114.213 26.0243 114.747 25.8706 115.25 25.4094C115.314 25.3447 115.355 25.28 115.493 25.28C115.606 25.28 115.63 25.3043 115.695 25.369L115.962 25.6279V25.636ZM111.693 23.7349H115.007C114.942 22.8774 114.367 22.481 113.419 22.481C112.576 22.481 111.831 22.8774 111.693 23.7349Z" fill="#8F8F8F"/>
<path d="M123.002 23.5245C123.002 23.6378 122.897 23.7429 122.783 23.7429H122.095C121.981 23.7429 121.9 23.6539 121.876 23.5488L121.827 23.3708C121.609 22.756 121.114 22.481 120.296 22.481C119.186 22.481 118.546 23.2252 118.546 24.2526C118.546 25.28 119.276 26.0242 120.426 26.0242C121.22 26.0242 121.738 25.7572 122.281 25.191C122.33 25.1424 122.37 25.1263 122.435 25.1263C122.483 25.1263 122.548 25.1424 122.573 25.1748L122.945 25.5793C122.945 25.5793 123.01 25.6521 123.01 25.7168C123.01 25.7815 122.994 25.822 122.937 25.8948C122.386 26.5419 121.528 26.9788 120.434 26.9788C118.773 26.9788 117.429 26.0323 117.429 24.2364C117.429 22.4405 118.717 21.494 120.304 21.494C121.617 21.494 122.71 21.9956 122.986 23.3061C123.002 23.3708 123.01 23.4436 123.01 23.5083L123.002 23.5245Z" fill="#8F8F8F"/>
<path d="M123.95 22.6104C123.877 22.6104 123.771 22.5052 123.771 22.4324V21.8176C123.771 21.7448 123.877 21.6396 123.95 21.6396H124.638V20.4505C124.638 20.3777 124.776 20.2321 124.857 20.2321H125.546C125.618 20.2321 125.764 20.3696 125.764 20.4505V21.6396H127.506C127.579 21.6396 127.684 21.7448 127.684 21.8176V22.4324C127.684 22.5052 127.579 22.6104 127.506 22.6104H125.764V25.0373C125.764 25.8705 126.113 26.0323 126.647 26.0323C126.939 26.0323 127.287 25.8543 127.482 25.7411C127.611 25.6683 127.684 25.7249 127.741 25.8301L127.96 26.2507C128 26.3235 128.008 26.3559 128.008 26.4206C128.008 26.5096 127.96 26.5581 127.838 26.6228C127.579 26.7765 127.085 27.0031 126.558 27.0031C125.424 27.0031 124.638 26.453 124.638 25.0373V22.6104H123.95Z" fill="#8F8F8F"/>
</g>
<defs>
<clipPath id="clip0_3314_174">
<rect width="128" height="39" fill="white"/>
</clipPath>
</defs>
</svg>
