<svg width="97" height="84" viewBox="0 0 97 84" fill="none" xmlns="http://www.w3.org/2000/svg">
<g clip-path="url(#clip0_3314_9043)">
<path d="M0 14.3811C1.6601 9.88253 5.28164 8.61913 9.85286 9.07922C7.91882 -3.12396 22.6881 -2.91218 21.2179 9.07739H28.4172C26.5123 -3.01442 41.4843 -2.91035 39.784 9.07739H46.9833C45.2976 -2.94504 60.0376 -2.94321 58.3501 9.07739H65.5494C64.7422 4.76136 66.994 -0.682962 72.082 0.0692389C76.5199 0.724676 77.4039 5.289 76.9144 9.07922C82.1248 8.7305 86.2943 10.4303 86.7819 16.0718C87.4503 23.8074 86.1902 32.4175 86.8476 40.2499C96.6676 48.0951 100.145 60.6378 93.7857 71.9647C93.0936 73.1988 91.6581 76.1456 90.071 75.691C87.4759 74.9497 91.2088 71.0244 91.8791 69.6788C101.926 49.5283 77.4404 29.7629 60.065 43.5563C40.9455 58.7354 58.6697 89.7418 82.5942 78.9572C83.8014 78.4131 87.569 74.999 87.8448 78.2762C88.0201 80.3502 79.2649 83.275 77.3893 83.6019C69.1801 85.035 63.1788 82.4535 56.6681 77.995C40.6716 76.9671 22.7922 79.4447 7.01662 78.0096C3.26541 77.6682 1.4519 76.1346 0 72.7132V21.5782C3.21428 19.2449 3.15949 23.4203 3.03165 25.7445H83.7393V14.571C83.7393 14.4761 82.7622 13.2747 82.5631 13.0958C80.861 11.5513 79.0329 12.2231 76.9162 12.1081C77.1811 15.5898 77.0057 19.4019 73.2381 20.742C67.6368 22.7338 64.6271 17.0211 65.5512 12.1099H58.352C60.0595 24.0958 45.2118 24.1981 46.9851 12.1099H39.7858C41.4843 24.0776 26.4813 24.2547 28.419 12.1099H21.2197C22.6735 24.0867 7.94438 24.377 9.85469 12.1081C7.66313 12.1318 4.3758 11.5275 3.31838 14.1C2.61525 15.8107 3.23619 19.3216 0.00182629 17.4137V14.383L0 14.3811ZM14.2889 3.09812C13.8068 3.24236 13.3593 3.76086 13.1055 4.18626C12.185 5.72352 12.1887 15.1187 12.9722 16.7546C14.1483 19.2084 17.7516 18.3375 18.1808 16.0772C18.4291 14.7682 18.4291 6.41548 18.1808 5.10825C17.863 3.44684 15.8431 2.63439 14.2889 3.09812ZM33.2422 3.09265C31.9949 3.36103 31.3739 4.38709 31.1621 5.57016C30.8443 7.33929 30.8443 15.0001 31.4232 16.4917C32.393 18.9874 36.1332 18.7318 36.6738 16.384C36.9733 15.0786 36.9131 5.20137 36.4748 4.24468C35.9269 3.05066 34.4074 2.84252 33.2422 3.09265ZM51.8065 3.09265C50.7454 3.32452 50.203 4.08584 50.0387 5.12468C49.7209 7.14577 49.7629 13.6052 50.0076 15.7139C50.3966 19.0733 54.6665 18.8743 55.2381 16.384C55.5376 15.0786 55.4774 5.20137 55.0391 4.24468C54.493 3.05431 52.9699 2.83705 51.8065 3.09265ZM70.3745 3.09265C69.3134 3.32634 68.771 4.08584 68.6066 5.12468C68.2888 7.14577 68.3308 13.6052 68.5755 15.7139C68.9481 18.9254 72.9166 19.0002 73.8791 16.4552C74.5695 14.6276 74.6699 5.11921 73.3403 3.75356C72.6208 3.01232 71.3533 2.87721 70.3745 3.09265ZM16.6722 28.7752H3.03165V42.4116H16.6722V28.7752ZM33.3445 28.7752H19.7039V42.4116H33.3445V28.7752ZM50.3948 28.7752H36.3743V42.4116H50.3948V28.7752ZM67.067 28.7752H53.0466V41.8438C56.4161 43.9361 58.3812 41.0788 60.9964 39.5634C62.8775 38.4753 64.9558 37.6282 67.0652 37.1078V28.7752H67.067ZM83.7393 28.7752H70.0987V36.3501C74.9 35.9941 79.3251 36.7755 83.7393 38.6232V28.7752ZM16.6722 45.0644H3.03165V58.7007H16.6722V45.0644ZM33.3445 45.0644H19.7039V58.7007H33.3445V45.0644ZM50.3948 45.0644H36.3743V58.7007H49.257C50.1318 54.1108 50.7053 49.7784 50.393 45.0644H50.3948ZM16.6722 61.3517H3.03165V72.5251C3.03165 73.009 5.01135 74.9881 5.49532 74.9881H16.6722V61.3517ZM33.3445 61.3517H19.7039V74.9881H33.3445V61.3517ZM49.2588 61.3517H36.3761V74.9881H54.1843C53.7972 73.721 52.7343 72.8063 52.0932 71.5849C50.4258 68.4118 49.5309 64.9192 49.257 61.3517H49.2588Z" fill="url(#paint0_linear_3314_9043)"/>
<path d="M72.6847 42.5014C85.4889 42.1801 94.0834 55.3052 89.2273 67.0264C82.0171 84.4311 55.5431 79.1931 55.5358 60.0247C55.5358 58.1552 57.0352 49.567 59.6267 50.0453C62.0648 50.4944 59.3674 54.5293 58.9966 55.7452C54.3834 70.8951 73.8901 81.6651 84.1264 69.8837C93.9081 58.6262 83.1202 41.8916 68.6669 46.0944C67.0835 46.5545 63.4126 49.1324 62.5269 48.6797C60.0449 46.6531 64.4646 44.6904 66.1758 43.9821C68.0806 43.1933 70.6338 42.5525 72.6865 42.5014H72.6847Z" fill="url(#paint1_linear_3314_9043)"/>
<path d="M85.2551 60.974L85.582 62.6007C85.3537 63.2051 84.9172 63.4972 84.2981 63.6158C82.7147 63.9189 75.0351 63.8733 73.3038 63.6432C72.0638 63.4789 71.7642 63.1923 71.598 61.938C71.346 60.0228 71.3533 52.8203 71.7076 51.0092C71.8647 50.2077 72.1459 49.817 72.997 49.7202L73.9996 49.9594C74.206 50.0908 74.648 50.7755 74.648 50.9362V60.974H85.2569H85.2551Z" fill="url(#paint2_linear_3314_9043)"/>
</g>
<defs>
<linearGradient id="paint0_linear_3314_9043" x1="0" y1="42.0008" x2="97" y2="42.0008" gradientUnits="userSpaceOnUse">
<stop stop-color="#AAAAAA"/>
<stop offset="1" stop-color="#232323"/>
</linearGradient>
<linearGradient id="paint1_linear_3314_9043" x1="55.5358" y1="60.0594" x2="90.6025" y2="60.0594" gradientUnits="userSpaceOnUse">
<stop stop-color="#AAAAAA"/>
<stop offset="1" stop-color="#232323"/>
</linearGradient>
<linearGradient id="paint2_linear_3314_9043" x1="71.4209" y1="56.773" x2="85.5802" y2="56.773" gradientUnits="userSpaceOnUse">
<stop stop-color="#AAAAAA"/>
<stop offset="1" stop-color="#232323"/>
</linearGradient>
<clipPath id="clip0_3314_9043">
<rect width="97" height="84" fill="white"/>
</clipPath>
</defs>
</svg>
