<svg width="67" height="86" viewBox="0 0 67 86" fill="none" xmlns="http://www.w3.org/2000/svg">
<g clip-path="url(#clip0_3314_9009)">
<path d="M13.581 85.3427C11.1915 84.5986 9.62599 82.4392 9.41699 79.2553V51.9223C9.44228 50.9216 10.0254 50.1927 10.8134 50.631C10.9253 50.6939 11.3672 51.1917 11.3672 51.2546V70.8403H39.2269V66.9225C38.9007 66.5096 38.4255 66.4111 38.0634 66.0781C37.7439 65.7842 37.1941 64.809 36.9225 64.7053C36.5138 64.549 35.8562 64.7291 35.389 64.668C33.7915 64.459 32.624 63.1898 32.459 61.0848C32.3485 59.6696 32.3312 55.4612 32.7319 54.2719C33.4694 52.082 35.2119 51.9019 36.8626 51.9766C37.2726 50.6956 38.2777 49.7374 39.3227 49.3755C44.6942 48.9474 50.3385 50.3082 55.4996 48.0027V10.6678H11.3685V13.918C11.3685 14.708 9.70586 15.2143 9.44361 13.7158C9.2386 12.5452 9.32913 7.64535 9.41166 6.2437C9.60202 2.97317 11.2128 0.504567 13.7927 0.0220591L52.9597 0.00337036C54.7102 -0.110461 57.4525 2.90861 57.4525 5.085V46.8389C58.4895 46.2324 59.3681 45.3065 60.288 44.4706C59.878 38.373 66.1733 37.0936 66.8296 43.249C66.4142 52.8737 67.3661 63.2255 66.8296 72.7653C66.7231 74.6698 65.9896 76.2312 64.5093 76.7952C61.9507 77.7704 60.0763 74.8431 60.2867 71.7102C59.3655 70.8743 58.4869 69.9484 57.4512 69.3418V80.2594C57.4512 81.3722 56.0161 83.8307 55.1988 84.376L53.2858 85.3427H13.581ZM55.501 8.16863V5.41799C55.501 4.33065 53.7797 2.34455 52.8305 2.50256H14.0363C11.7506 2.95279 11.1556 5.54202 11.3685 8.16863H55.501ZM60.3173 68.5076V56.0898C60.3173 54.9736 62.0732 54.3926 62.2622 55.9335C62.5551 61.2581 61.9014 67.179 62.2649 72.4323C62.4113 74.556 63.7918 75.2916 64.7755 73.4669L64.8807 43.4155C64.7223 41.2034 62.4991 40.9877 62.2702 43.5888C62.0705 45.8722 62.4419 48.56 62.2436 50.8893C61.8322 52.2298 60.3173 51.5213 60.3173 50.4238V47.6731L57.2395 49.8155C54.6423 51.2817 51.8281 51.8526 48.9913 51.839V64.34C51.8281 64.3265 54.6423 64.8973 57.2395 66.3635L60.3173 68.5059V68.5076ZM47.0384 51.839H39.553C39.1936 51.839 38.5147 53.1047 38.4548 53.5991C38.2551 55.2539 38.307 60.5038 38.4401 62.2639C38.4867 62.8789 39.0471 64.3383 39.553 64.3383H47.0384V51.8373V51.839ZM36.4939 54.5064C35.779 54.5013 34.7646 54.3229 34.5144 55.3814C34.3094 56.2478 34.3307 59.5676 34.4039 60.5989C34.5263 62.3149 35.3384 62.2146 36.4939 62.1739V54.5064ZM46.1279 66.8409H41.1811V75.2593C41.1811 75.3494 41.4274 75.7503 41.5205 75.8251C41.9479 76.1683 44.7541 76.1819 45.0935 75.6008L46.1292 66.8409H46.1279ZM55.501 68.1746C53.2086 67.0805 50.7339 66.7679 48.2938 66.863L48.1021 67.1179L47.6894 70.8403H55.501V68.1729V68.1746ZM39.2282 73.3429H11.3685V79.4269C11.3685 81.0087 12.9034 82.8656 14.1628 82.8503L52.8305 82.8419C53.7797 82.9999 55.501 81.0155 55.501 79.9264V73.3429H47.4298C47.2607 75.1591 47.1835 77.1622 45.7245 78.0779C44.7354 78.6998 41.864 78.7134 40.8509 78.1833C40.2639 77.8758 39.2282 76.5608 39.2282 75.7605V73.3429Z" fill="url(#paint0_linear_3314_9009)"/>
<path d="M31.2556 77.0535C32.0876 76.8887 34.9404 76.8632 35.7471 77.0484C36.9931 77.3355 37.0024 79.2723 36.0346 79.5051C35.4476 79.6461 31.422 79.6461 30.8336 79.5051C29.9803 79.3012 29.8431 77.3321 31.2556 77.0535Z" fill="url(#paint1_linear_3314_9009)"/>
<path d="M0.173084 23.6701C0.43134 21.0757 2.27374 18.6632 4.2852 18.1841L26.5404 18.1637C28.7196 18.405 30.5461 20.9058 30.8829 23.6055C30.6526 29.3463 31.237 35.5799 30.9028 41.2629C30.7351 44.1087 28.9712 46.669 26.7308 47.0071C26.997 49.0153 29.7553 54.5795 26.2649 53.6858L19.3492 47.2059C14.6767 46.7608 9.53817 47.6799 4.92153 47.177C2.43349 46.9069 0.744175 44.6982 0.174415 41.6707C0.581767 36.0505 -0.36872 29.1357 0.174415 23.6684L0.173084 23.6701ZM25.2971 49.5046C25.1733 48.2729 24.1948 46.6962 24.7233 45.5188C25.2185 44.4162 26.1797 44.7798 26.9864 44.4179C28.0168 43.9541 28.6997 42.741 28.9313 41.4073C28.6331 35.8721 29.3706 29.5298 28.9406 24.088C28.8035 22.3568 27.6613 20.7835 26.2782 20.6629H4.7884C3.34803 20.7971 2.26575 22.4825 2.12598 24.2545C2.39222 29.5876 1.76522 35.4949 2.11932 40.76C2.2591 42.8447 3.30809 44.3381 4.92153 44.6728L19.7326 44.7118L20.55 45.1655L25.2958 49.5046H25.2971Z" fill="url(#paint2_linear_3314_9009)"/>
<path d="M5.93989 36.4565C5.45266 35.7225 5.78813 34.3124 6.61481 34.3345H23.4134C24.7885 34.5401 24.7193 36.6706 23.4134 36.8422L6.73861 36.849C6.49367 36.866 6.09031 36.6842 5.93989 36.4565Z" fill="url(#paint3_linear_3314_9009)"/>
<path d="M10.5499 28.3728L23.4134 28.3337C24.7194 28.5053 24.7886 30.6341 23.4134 30.8414C19.4251 30.398 14.6767 31.4191 10.7802 30.8414C9.59145 30.6647 9.44768 28.8689 10.5499 28.3728Z" fill="url(#paint4_linear_3314_9009)"/>
</g>
<defs>
<linearGradient id="paint0_linear_3314_9009" x1="9.31848" y1="42.6714" x2="67" y2="42.6714" gradientUnits="userSpaceOnUse">
<stop stop-color="#AAAAAA"/>
<stop offset="1" stop-color="#232323"/>
</linearGradient>
<linearGradient id="paint1_linear_3314_9009" x1="30.1919" y1="78.2648" x2="36.7242" y2="78.2648" gradientUnits="userSpaceOnUse">
<stop stop-color="#AAAAAA"/>
<stop offset="1" stop-color="#232323"/>
</linearGradient>
<linearGradient id="paint2_linear_3314_9009" x1="2.63107e-05" y1="35.9723" x2="31.008" y2="35.9723" gradientUnits="userSpaceOnUse">
<stop stop-color="#AAAAAA"/>
<stop offset="1" stop-color="#232323"/>
</linearGradient>
<linearGradient id="paint3_linear_3314_9009" x1="5.71358" y1="35.5917" x2="24.4185" y2="35.5917" gradientUnits="userSpaceOnUse">
<stop stop-color="#AAAAAA"/>
<stop offset="1" stop-color="#232323"/>
</linearGradient>
<linearGradient id="paint4_linear_3314_9009" x1="9.79912" y1="29.6776" x2="24.4185" y2="29.6776" gradientUnits="userSpaceOnUse">
<stop stop-color="#AAAAAA"/>
<stop offset="1" stop-color="#232323"/>
</linearGradient>
<clipPath id="clip0_3314_9009">
<rect width="67" height="85.3428" fill="white"/>
</clipPath>
</defs>
</svg>
