<svg width="103" height="89" viewBox="0 0 103 89" fill="none" xmlns="http://www.w3.org/2000/svg">
<g clip-path="url(#clip0_3314_9049)">
<g clip-path="url(#clip1_3314_9049)">
<path d="M65.7792 7C69.5875 7.82561 72.9775 8.9458 76.1554 11.2294C81.9542 15.3949 85.0552 22.103 85.3948 29.1938C94.9925 30.905 98.6038 43.0415 90.5913 49.1322C89.6758 49.8283 86.7793 51.3444 85.7531 51.3444H65.7792V54.3673C67.3532 54.0183 68.5764 54.2003 69.944 55.0822C70.3417 55.3392 70.4374 56.0354 70.6775 56.056C71.4823 56.1254 72.7749 55.4387 74.2682 55.7839C75.3019 56.0222 75.8797 57.2156 76.3899 57.3132C76.7839 57.3882 77.4724 57.013 78.0221 57.0336C80.4703 57.1237 81.3858 57.8123 82.4044 60.0696C81.9204 66.3404 84.1247 77.7225 81.2807 83.1528C80.6991 84.2636 78.1984 86.5471 78.1984 86.7873V93.0019H56.0428V86.4514C56.0428 86.0349 52.392 83.1021 52.0187 79.3925C51.5591 74.8348 52.1332 72.358 50.7674 67.5432C50.1333 65.3103 48.2611 63.7285 50.0001 61.2554C52.0206 58.3827 55.1817 60.2103 57.7218 61.0885V51.851L57.219 51.3463H29.8593V59.745H43.4547C43.6967 59.745 45.1788 60.7657 45.4546 61.1016C46.0474 61.824 46.2369 62.6871 46.325 63.5897C46.9591 70.1476 45.8335 77.7432 46.2894 84.4156C46.3888 85.2449 44.3233 87.2902 43.7905 87.2902H36.9093V90.3149L39.5958 90.3111V93H17.4401V90.3111L20.1266 90.3149V87.2902H13.2435C12.5625 87.2902 10.195 84.7458 10.4201 83.7326C10.784 77.4561 9.82916 70.4516 10.3751 64.2652C10.4632 63.2707 10.6602 62.2687 11.2418 61.4375C11.5532 60.9946 13.221 59.7431 13.5774 59.7431H27.1729V51.3444H18.2768C17.8247 51.3444 15.4365 50.3631 14.8587 50.061C11.7539 48.436 9.78226 45.2743 9.04499 41.9381C9.14817 40.8724 8.89866 39.6039 9.04499 38.5794C9.75036 33.6164 14.5323 29.6235 19.3949 29.115C21.6593 18.1438 34.3092 12.2107 44.4171 17.0349C45.6046 15.9447 46.3157 14.5111 47.4732 13.3759C50.456 10.4469 56.2397 7.45033 60.4063 7.00375H65.7774L65.7792 7ZM72.8274 40.2588C72.7336 34.4777 77.0353 30.3309 82.4157 29.1938C82.23 8.51799 54.9415 2.41789 45.4752 20.7426C35.6674 14.2972 23.0569 20.2566 21.4904 31.7156C10.1706 31.5205 7.98316 46.464 19.3199 48.6199L56.8813 48.6556C58.2471 48.4041 57.3297 46.312 58.3915 44.7921C61.0742 40.9568 66.9968 44.0397 65.7755 48.6575C71.6361 48.3272 77.9433 49.089 83.7514 48.6706C90.505 48.1846 94.7973 41.3902 90.7658 35.5753C86.0176 28.7266 75.8891 32.2448 75.4988 40.2419L72.8274 40.2588ZM63.0928 69.4852V46.8092C63.0928 45.9592 60.4063 45.6008 60.4063 46.4734V69.4852H57.7199C57.7706 67.637 57.491 64.9088 56.0202 63.6291C55.3186 63.0211 52.4258 61.657 52.0394 62.9761C51.9343 63.3345 54.0279 68.7516 54.2662 70.0876C54.8627 73.4425 54.2924 76.7862 54.919 79.8485C55.298 81.7023 56.8945 84.4268 58.8774 84.622C64.3535 85.1586 70.9383 84.3236 76.5156 84.4268C78.7124 82.6931 79.6486 80.8749 79.8906 78.0622C80.2001 74.4576 80.3746 64.6386 79.8568 61.2761C79.7518 60.5931 79.4854 59.8275 78.6956 59.7262C77.9902 59.4185 76.8589 60.3304 76.8589 60.9177V69.4834H74.1725V59.2365C74.1725 58.9907 73.1088 58.2026 72.6792 58.3808C72.3303 58.3602 71.4861 59.0695 71.4861 59.2365V69.4834H68.7996V58.2289C68.7996 56.6133 65.7792 56.891 65.7792 57.893V69.4834H63.0928V69.4852ZM43.6236 79.2274V63.2707C43.6236 63.2125 43.1058 62.6777 42.9463 62.6046L13.6393 62.7434C13.4649 62.8522 13.0747 63.4752 13.0747 63.6084V78.7264L13.5774 79.2311H43.6217L43.6236 79.2274ZM13.0634 81.9144V84.6201H43.6405V81.9144H13.0634ZM33.889 87.2902H23.3139C22.4359 88.0051 22.9049 89.2998 22.8111 90.313H33.889V87.2902ZM75.5138 87.2902H59.065V90.313H75.5138V87.2902Z" fill="url(#paint0_linear_3314_9049)"/>
<path d="M68.8447 30.5595L71.4861 30.5164C71.1203 37.4365 64.6631 42.2212 57.9714 39.5042C51.8481 37.018 51.349 30.5952 52.3527 24.8047L54.8928 25.4633C54.9491 27.2102 54.5345 28.9046 54.7052 30.6796C55.6001 39.9902 67.9461 39.6168 68.8466 30.5595H68.8447Z" fill="url(#paint1_linear_3314_9049)"/>
<path d="M71.4862 27.8259L68.8447 27.7827C68.1769 21.4218 61.2732 18.4928 56.5475 23.103L54.7128 21.2998C60.7085 14.558 71.1841 19.1589 71.4862 27.824V27.8259Z" fill="url(#paint2_linear_3314_9049)"/>
<path d="M19.9578 45.9687C17.0218 45.6046 14.4292 43.3661 14.7537 40.257L17.2376 40.2363C17.4214 40.8105 18.3801 42.9458 18.9522 42.9458H29.8631V45.9687C26.7377 45.6891 23.0082 46.3458 19.9597 45.9687H19.9578Z" fill="url(#paint3_linear_3314_9049)"/>
<path d="M27.1729 32.1977L24.4846 31.6873C25.1356 25.6022 30.5291 20.9413 36.5905 20.915C37.8381 24.4764 36.0596 23.4087 33.9491 24.0279C30.531 25.0281 27.3286 28.5744 27.1729 32.1996V32.1977Z" fill="url(#paint4_linear_3314_9049)"/>
<path d="M65.7812 30.5166H63.0929C62.9878 29.3908 63.5881 26.9196 62.1849 26.5312C60.639 26.1034 60.6221 27.7264 60.1738 27.8334C59.5003 27.9966 58.4685 27.7208 57.7218 27.8259C57.2753 23.9981 62.4287 22.3281 64.7756 24.9682C66.1808 26.5462 65.7324 28.5746 65.7812 30.5166Z" fill="url(#paint5_linear_3314_9049)"/>
<path d="M60.3651 30.5635C60.5058 30.6967 60.367 31.4548 60.7234 31.7062C61.1906 32.0365 62.0573 31.6255 62.7796 32.3423C63.0422 32.6031 63.9596 34.0611 63.4324 34.3801C61.1249 35.7761 57.1515 33.3593 57.7218 30.5166L60.3651 30.5635Z" fill="url(#paint6_linear_3314_9049)"/>
<path d="M35.2323 42.9438V45.9704L32.8591 45.8222C32.2701 45.415 32.6284 43.6719 32.544 42.9438H35.2323Z" fill="url(#paint7_linear_3314_9049)"/>
<path d="M33.0486 65.7963L34.8889 67.637L25.6627 76.8688C24.2276 74.9305 20.0703 73.2755 23.9837 71.4874L25.7078 72.8196L33.0486 65.7944V65.7963Z" fill="url(#paint8_linear_3314_9049)"/>
</g>
</g>
<defs>
<linearGradient id="paint0_linear_3314_9049" x1="-17.0578" y1="50.0009" x2="78.4592" y2="50.0009" gradientUnits="userSpaceOnUse">
<stop stop-color="#AAAAAA"/>
<stop offset="1" stop-color="#383838"/>
</linearGradient>
<linearGradient id="paint1_linear_3314_9049" x1="-17.0577" y1="32.541" x2="78.4592" y2="32.541" gradientUnits="userSpaceOnUse">
<stop stop-color="#AAAAAA"/>
<stop offset="1" stop-color="#383838"/>
</linearGradient>
<linearGradient id="paint2_linear_3314_9049" x1="-17.0577" y1="22.9492" x2="78.4593" y2="22.9492" gradientUnits="userSpaceOnUse">
<stop stop-color="#AAAAAA"/>
<stop offset="1" stop-color="#383838"/>
</linearGradient>
<linearGradient id="paint3_linear_3314_9049" x1="9.00002" y1="43.1635" x2="78.4592" y2="43.1635" gradientUnits="userSpaceOnUse">
<stop stop-color="#AAAAAA"/>
<stop offset="1" stop-color="#383838"/>
</linearGradient>
<linearGradient id="paint4_linear_3314_9049" x1="-17.0577" y1="26.5554" x2="78.4593" y2="26.5554" gradientUnits="userSpaceOnUse">
<stop stop-color="#AAAAAA"/>
<stop offset="1" stop-color="#383838"/>
</linearGradient>
<linearGradient id="paint5_linear_3314_9049" x1="-17.0578" y1="27.1016" x2="78.4592" y2="27.1016" gradientUnits="userSpaceOnUse">
<stop stop-color="#AAAAAA"/>
<stop offset="1" stop-color="#383838"/>
</linearGradient>
<linearGradient id="paint6_linear_3314_9049" x1="-17.0578" y1="32.6519" x2="78.4592" y2="32.6519" gradientUnits="userSpaceOnUse">
<stop stop-color="#AAAAAA"/>
<stop offset="1" stop-color="#383838"/>
</linearGradient>
<linearGradient id="paint7_linear_3314_9049" x1="-17.0577" y1="44.4562" x2="78.4593" y2="44.4562" gradientUnits="userSpaceOnUse">
<stop stop-color="#AAAAAA"/>
<stop offset="1" stop-color="#383838"/>
</linearGradient>
<linearGradient id="paint8_linear_3314_9049" x1="-17.0577" y1="71.3316" x2="78.4592" y2="71.3316" gradientUnits="userSpaceOnUse">
<stop stop-color="#AAAAAA"/>
<stop offset="1" stop-color="#383838"/>
</linearGradient>
<clipPath id="clip0_3314_9049">
<rect width="103" height="89" fill="white"/>
</clipPath>
<clipPath id="clip1_3314_9049">
<rect width="86" height="86" fill="white" transform="translate(9 7)"/>
</clipPath>
</defs>
</svg>
