<svg width="79" height="86" viewBox="0 0 79 86" fill="none" xmlns="http://www.w3.org/2000/svg">
<g clip-path="url(#clip0_3314_8975)">
<path d="M5.58723 0.0526526L73.322 0C75.539 0.268528 77.4408 2.35532 78.0092 5.07395C78.3587 23.1935 78.3532 41.5025 78.0119 59.6255C77.372 62.7548 75.3931 64.6398 72.8967 64.8785H6.39779C3.90006 64.6398 1.92251 62.7548 1.28259 59.6255C0.920663 41.5481 0.97571 23.3023 1.25369 5.21611C1.78765 2.59226 3.47207 0.544077 5.58723 0.0526526ZM5.7276 2.94854C4.32116 3.3838 3.44179 4.98971 3.34409 6.79394V57.9003C3.4184 60.1591 4.73676 61.9721 6.53954 61.9791H72.8967C74.5674 61.8843 75.8307 60.1731 75.9518 58.0828C75.8183 40.5934 76.1899 23.0267 75.7646 5.58293C75.4206 4.12796 74.3968 3.0012 73.1816 2.89765L5.7276 2.94854Z" fill="url(#paint0_linear_3314_8975)"/>
<path d="M7.37625 8.04176C8.22534 6.91675 9.57811 6.11468 10.8015 5.97778H68.4916C70.6687 6.29194 72.477 8.05756 73.1458 10.7306C73.7073 24.5694 73.2243 38.568 73.3922 52.4647C73.066 56.4733 70.8297 58.6321 67.7815 58.8971H11.5116C8.4469 58.6461 6.26018 56.4874 5.901 52.4647V12.2294C5.99733 10.8078 6.60835 9.06147 7.37625 8.04176ZM10.5566 8.92808C9.22168 9.3142 8.23084 10.8481 8.17305 12.5927L8.17717 52.4612C8.34644 54.383 9.83407 56.0556 11.3685 56.0012H68.065C69.6903 55.8977 70.9756 54.3567 71.1201 52.2857V12.5927C71.0637 10.6744 69.8485 9.02988 68.3499 8.87718L10.5566 8.92808Z" fill="url(#paint1_linear_3314_8975)"/>
<path d="M10.5524 22.8739L27.4325 22.8318C28.8733 23.0091 28.9517 25.5118 27.4325 25.7382H10.8043C9.47078 25.5838 9.28637 23.3987 10.5538 22.8739H10.5524Z" fill="url(#paint2_linear_3314_8975)"/>
<path d="M10.6997 34.2942L27.2907 34.2468C28.9421 34.4996 28.8389 36.9479 27.5797 37.1603L10.3143 37.0567C9.3758 36.2968 9.56434 34.5294 10.6997 34.296V34.2942Z" fill="url(#paint3_linear_3314_8975)"/>
<path d="M13.8236 29.0395C18.0443 29.4362 23.1746 28.3638 27.2893 28.9921C28.9407 29.2449 28.8375 31.6932 27.5783 31.9056L13.6571 31.8845C12.4681 31.6458 12.5768 29.1554 13.8236 29.0395Z" fill="url(#paint4_linear_3314_8975)"/>
<path d="M35.7403 32.9815C36.3293 34.0521 36.7326 36.0775 37.3174 37.0393C37.4151 37.199 37.4743 37.3289 37.6573 37.3306L56.6319 37.4114C57.3791 37.8185 57.6007 38.9506 56.9842 39.6912C56.7076 40.0229 56.2452 39.893 56.3415 40.409C60.2319 42.1817 59.2314 49.8619 55.1401 50.2007C50.4969 50.585 48.9185 42.7486 53.0745 40.409L52.8488 40.0826L41.9936 40.051C43.3863 41.2532 44.5602 42.8644 44.512 45.1636C44.3703 51.9593 36.3128 51.6749 36.3128 45.0319C36.3128 42.8363 37.5404 41.2023 38.8684 40.051C37.8307 39.9843 36.3541 40.653 35.6853 39.3086L26.2022 15.4377L18.8273 15.3306C17.7333 15.0024 17.5034 13.1982 18.5466 12.5909C21.1585 12.6734 24.1572 12.2031 26.7292 12.5014C27.0829 12.5418 27.2948 12.5488 27.5783 12.8682L34.5596 30.0926H56.7034C61.4292 29.4854 61.7237 22.9056 63.3049 18.4898H35.5312C34.4894 18.4898 34.0367 15.8203 35.5257 15.5834L65.4338 15.6852C65.9967 16.2134 66.0806 16.575 65.9705 17.449C65.7792 18.9724 63.3709 26.9633 62.7118 28.3323C61.7801 30.2682 59.1048 32.985 57.2677 32.985H35.7445L35.7403 32.9815ZM42.24 45.0354C42.24 43.7577 41.428 42.724 40.4276 42.724C39.4271 42.724 38.6152 43.7595 38.6152 45.0354C38.6152 46.3114 39.4271 47.3469 40.4276 47.3469C41.428 47.3469 42.24 46.3114 42.24 45.0354ZM56.5521 45.0284C56.5521 43.7542 55.7429 42.7222 54.7438 42.7222C53.7447 42.7222 52.9355 43.7542 52.9355 45.0284C52.9355 46.3026 53.7447 47.3346 54.7438 47.3346C55.7429 47.3346 56.5521 46.3026 56.5521 45.0284Z" fill="url(#paint5_linear_3314_8975)"/>
<path d="M4.7409 69.2733L74.0252 69.2224C82.0771 70.4668 79.2959 83.7229 73.1733 85.3429H5.97807C0.00552679 83.6545 -3.23121 70.9547 4.7409 69.2733ZM4.7354 72.1657C2.97253 72.5869 1.97619 74.4613 2.22528 76.7236C2.38629 78.1891 4.71751 82.3364 6.11569 82.4505L73.033 82.447C74.6114 82.2645 75.839 79.6037 76.4486 77.9241C77.4546 75.1476 76.3 72.3763 73.8903 72.113L4.7354 72.1674V72.1657Z" fill="url(#paint6_linear_3314_8975)"/>
</g>
<defs>
<linearGradient id="paint0_linear_3314_8975" x1="1.028" y1="32.4392" x2="78.2693" y2="32.4392" gradientUnits="userSpaceOnUse">
<stop stop-color="#AAAAAA"/>
<stop offset="1" stop-color="#232323"/>
</linearGradient>
<linearGradient id="paint1_linear_3314_8975" x1="5.901" y1="32.4392" x2="73.4279" y2="32.4392" gradientUnits="userSpaceOnUse">
<stop stop-color="#AAAAAA"/>
<stop offset="1" stop-color="#232323"/>
</linearGradient>
<linearGradient id="paint2_linear_3314_8975" x1="9.69647" y1="24.285" x2="28.543" y2="24.285" gradientUnits="userSpaceOnUse">
<stop stop-color="#AAAAAA"/>
<stop offset="1" stop-color="#232323"/>
</linearGradient>
<linearGradient id="paint3_linear_3314_8975" x1="9.71296" y1="35.7018" x2="28.5265" y2="35.7018" gradientUnits="userSpaceOnUse">
<stop stop-color="#AAAAAA"/>
<stop offset="1" stop-color="#232323"/>
</linearGradient>
<linearGradient id="paint4_linear_3314_8975" x1="12.8245" y1="30.3471" x2="28.5265" y2="30.3471" gradientUnits="userSpaceOnUse">
<stop stop-color="#AAAAAA"/>
<stop offset="1" stop-color="#232323"/>
</linearGradient>
<linearGradient id="paint5_linear_3314_8975" x1="17.8709" y1="31.3072" x2="66.0077" y2="31.3072" gradientUnits="userSpaceOnUse">
<stop stop-color="#AAAAAA"/>
<stop offset="1" stop-color="#232323"/>
</linearGradient>
<linearGradient id="paint6_linear_3314_8975" x1="2.24254e-05" y1="77.2818" x2="79" y2="77.2818" gradientUnits="userSpaceOnUse">
<stop stop-color="#AAAAAA"/>
<stop offset="1" stop-color="#232323"/>
</linearGradient>
<clipPath id="clip0_3314_8975">
<rect width="79" height="85.3428" fill="white"/>
</clipPath>
</defs>
</svg>
