<svg width="68" height="68" viewBox="0 0 68 68" fill="none" xmlns="http://www.w3.org/2000/svg">
<g clip-path="url(#clip0_3314_8993)">
<path d="M9.54161 0C9.76193 0.198932 10.4692 0.538715 10.4692 0.862524V3.78407L28.6263 3.983V1.26184C28.6263 0.72603 29.2292 0.203288 29.6858 0H38.1679C38.6259 0.203288 39.2274 0.724578 39.2274 1.26184V3.98445L57.3844 3.78552V0.862524C57.3844 0.538715 58.0917 0.19748 58.312 0H66.926C67.3202 0.349947 67.8435 0.656331 67.8565 1.25894C67.629 3.76955 68.1508 6.78548 67.8565 9.2322C67.7275 10.3024 67.0202 10.5463 66.0694 10.6276C64.2445 10.7845 60.8616 10.7816 59.0367 10.6276C58.6208 10.5928 57.3844 10.2777 57.3844 9.7593V6.63882H46.5166L49.9517 8.57587C58.1511 13.783 63.472 22.8946 63.8778 32.667C65.2881 32.8108 67.6739 32.0237 67.8609 34.0537C68.0247 35.8354 68.0667 40.1625 67.858 41.8978C67.7391 42.8895 67.1043 43.1959 66.1969 43.2874C64.4707 43.4602 60.6326 43.466 58.9106 43.2874C58.2033 43.2148 57.4772 42.9665 57.3786 42.1664C57.0612 39.5745 57.6206 36.3335 57.3916 33.6704C57.3235 33.3059 58.1584 32.667 58.3773 32.667H61.2268C60.6963 20.3855 51.3403 9.34401 39.2274 7.17028V9.36143C39.2274 9.87837 38.6027 10.3779 38.1229 10.5115C37.1286 10.7874 31.357 10.7598 30.1641 10.6073C29.5408 10.5274 28.6248 10.0802 28.6248 9.36143V7.17028C16.5119 9.34401 7.1544 20.3855 6.62536 32.667H9.47494C9.88948 32.667 10.4185 33.3364 10.4721 33.7924C10.7707 36.3799 10.2388 39.5178 10.475 42.1664C10.3779 42.9665 9.64887 43.2162 8.943 43.2874C7.20223 43.4631 3.40038 43.4616 1.65671 43.2874C0.80155 43.2017 0.402957 42.9868 -0.00143433 42.2259V33.5949C0.845033 32.1094 2.55246 32.8209 3.9758 32.6656C4.38164 22.8932 9.7025 13.7801 17.9019 8.57442L21.3371 6.63737H10.4692V9.75785C10.4692 10.2225 9.33579 10.5783 8.943 10.6189C7.18629 10.8004 3.56416 10.7772 1.78281 10.6262C0.885617 10.5492 0.421799 10.3822 -0.00143433 9.55892V0H9.54016H9.54161ZM7.81969 2.65582H2.65102V7.96746H7.81969V2.65582ZM36.5778 2.65582H31.2773V7.96746H36.5778V2.65582ZM65.2041 2.65582H60.0354V7.96746H65.2041V2.65582ZM7.81969 35.3228H2.65102V40.6345H7.81969V35.3228ZM65.2041 35.3228H60.0354V40.6345H65.2041V35.3228Z" fill="url(#paint0_linear_3314_8993)"/>
<path d="M32.602 20.5829L29.4916 26.0311C28.3856 27.3249 26.6637 26.14 27.2696 24.6008C29.1495 21.6342 30.5656 18.113 32.4469 15.1813C33.0963 14.1692 33.8326 13.2979 34.924 14.4712L47.3108 36.9941C47.4384 38.0512 45.6295 39.4307 44.9323 40.3048C43.122 42.5773 41.9538 45.1968 41.2203 48.0051C41.7943 48.143 42.3871 48.024 42.9727 48.1038C46.8456 48.6295 47.6906 53.8221 44.2598 55.5936L44.2062 67.0648C43.7902 67.8141 43.1046 68.2991 42.2828 67.7822C42.132 67.6878 41.6146 67.1171 41.6146 66.9922V56.0364H26.2405V66.9922C26.2405 67.1186 25.723 67.6878 25.5723 67.7822C24.7505 68.3006 24.0649 67.8156 23.6489 67.0648L23.5953 55.5936C19.3339 53.051 21.8589 47.2747 26.6376 48.0675C25.9347 45.2404 24.7403 42.5846 22.9227 40.3034C22.1574 39.3436 20.2688 38.0222 20.6022 36.7778C20.7486 36.2303 22.0458 34.0174 22.4212 33.4206C22.943 32.5915 23.6272 31.7159 24.6968 32.5494C26.1651 33.6936 23.7141 35.8209 23.6069 37.0827C26.5565 40.0972 28.4914 43.9539 29.3684 48.0763L38.5505 48.0545C39.1114 44.9224 40.4289 41.95 42.2987 39.3944C42.9162 38.5493 43.6307 37.7986 44.2699 36.9723L35.2516 20.5786V30.2725C40.0564 31.7115 39.1172 38.8455 34.1312 39.043C28.8958 39.2506 27.5798 31.8306 32.602 30.2725V20.5786V20.5829ZM35.7777 34.5329C35.7777 33.5092 34.9501 32.6801 33.9283 32.6801C32.9064 32.6801 32.0788 33.5092 32.0788 34.5329C32.0788 35.5566 32.9064 36.3857 33.9283 36.3857C34.9501 36.3857 35.7777 35.5566 35.7777 34.5329ZM25.1447 50.7582C23.6083 51.1779 23.7794 53.2165 25.3766 53.3864H42.4784C44.241 53.1744 44.1757 50.9092 42.4784 50.7248L25.1447 50.7582Z" fill="url(#paint1_linear_3314_8993)"/>
<path d="M26.0622 30.8097C26.7866 30.8097 27.3739 30.2214 27.3739 29.4956C27.3739 28.7699 26.7866 28.1815 26.0622 28.1815C25.3377 28.1815 24.7505 28.7699 24.7505 29.4956C24.7505 30.2214 25.3377 30.8097 26.0622 30.8097Z" fill="url(#paint2_linear_3314_8993)"/>
</g>
<defs>
<linearGradient id="paint0_linear_3314_8993" x1="1.51038e-05" y1="21.7098" x2="68" y2="21.7098" gradientUnits="userSpaceOnUse">
<stop stop-color="#AAAAAA"/>
<stop offset="1" stop-color="#232323"/>
</linearGradient>
<linearGradient id="paint1_linear_3314_8993" x1="20.5645" y1="40.9553" x2="47.3166" y2="40.9553" gradientUnits="userSpaceOnUse">
<stop stop-color="#AAAAAA"/>
<stop offset="1" stop-color="#232323"/>
</linearGradient>
<linearGradient id="paint2_linear_3314_8993" x1="24.7505" y1="29.4956" x2="27.3725" y2="29.4956" gradientUnits="userSpaceOnUse">
<stop stop-color="#AAAAAA"/>
<stop offset="1" stop-color="#232323"/>
</linearGradient>
<clipPath id="clip0_3314_8993">
<rect width="68" height="68" fill="white"/>
</clipPath>
</defs>
</svg>
