<svg width="61" height="87" viewBox="0 0 61 87" fill="none" xmlns="http://www.w3.org/2000/svg">
<g clip-path="url(#clip0_3314_9002)">
<path d="M50.7482 0.0473971C53.9248 0.567185 55.8821 4.50272 55.6169 8.42088C55.5407 9.54893 55.1478 10.3262 54.955 11.3721C58.3072 10.8681 60.9423 14.1354 61 18.3901V61.662C61.0405 65.0398 58.624 68.6799 55.9398 68.6799H34.972L36.5671 76.9412C38.2383 77.1055 40.2373 76.5921 41.7661 77.6079C43.3746 78.6791 44.0979 80.9652 43.91 83.2182C44.0794 83.4346 47.8602 82.9101 48.6792 83.4251C49.8604 84.1677 49.341 86.7935 47.9252 86.6055H13.2111C11.3545 86.7793 11.0463 83.4947 12.9532 83.2182C14.2437 83.0302 15.7762 83.3556 17.0949 83.2182C16.955 81.0932 17.4523 79.1752 18.8386 77.9381C20.4606 76.4925 22.5751 77.1119 24.4378 76.9412L26.0329 68.6799H5.06635C2.40302 68.6815 -0.0491163 65.0256 0.00736745 61.6636L0 18.3822C0.195237 14.7073 1.69206 12.1431 4.53958 11.3721L40.9323 11.3453C43.2825 7.94849 45.0888 0.698317 49.039 0.0473971C49.427 -0.015799 50.359 -0.015799 50.7482 0.0473971ZM49.4012 3.4742C48.6988 3.59744 48.107 4.09511 47.6146 4.72549L39.5816 20.0837L43.3476 23.6954L43.7233 23.5579C45.2951 20.9195 47.0141 18.4296 48.6411 15.8496C49.4515 14.5635 52.692 9.82541 52.9204 8.67366C53.511 5.69397 51.7735 3.05869 49.4012 3.47262V3.4742ZM39.1801 14.7547H4.67219C4.1577 14.7547 3.16923 15.9854 2.96049 16.6111C2.89172 16.8165 2.63386 17.9161 2.63386 18.0504V50.4226H6.51159C6.93645 50.4226 7.69653 51.2504 7.75792 51.8745C7.81932 52.4986 7.40674 53.8036 6.90575 53.8036H2.83156L2.63386 54.0563V62.0017C2.63386 62.1138 2.84997 62.9875 2.90891 63.1692C3.37061 64.5769 4.44503 65.2152 5.58698 65.3053H55.289C56.4801 65.2879 57.7104 64.5595 58.1414 63.057C58.1856 62.9022 58.3723 61.9179 58.3723 61.8326V54.0563L58.1746 53.8036H16.5031C16.0021 53.8036 15.5895 52.4986 15.6509 51.8745C15.7123 51.2504 16.4724 50.4226 16.8972 50.4226H58.3723V18.052C58.3723 17.7865 58.0457 16.5653 57.9057 16.2856C56.7342 13.949 54.4393 14.9285 52.6158 14.7926L40.823 33.3549C40.6511 33.8289 41.1349 35.9064 41.1386 36.6648C41.1582 40.4976 39.2181 44.0808 36.2675 44.904C33.6533 45.6339 30.9961 44.2452 28.5489 45.7966C27.4216 46.5107 25.9334 49.0165 25.0763 45.9909C24.1456 42.7063 23.9528 37.4168 24.6846 34.0658C25.818 28.8743 29.2303 26.6277 33.2075 26.2611L39.1801 14.7547ZM39.1629 30.7923L41.7857 26.5029L38.4605 23.2024L38.0799 23.0476L35.6548 27.6894C36.4492 28.4999 37.2437 29.3799 38.0872 30.1066C38.3181 30.3057 38.932 30.9629 39.1629 30.7907V30.7923ZM38.0885 34.246L33.4335 29.8365C32.6501 29.6879 31.8581 29.8902 31.1054 30.1509C26.6137 31.7086 26.4049 37.8829 27.219 42.8169C28.4383 42.1312 29.7498 41.7047 31.0894 41.6257C33.4666 41.4851 36.1422 42.7964 37.7913 39.763C38.4691 38.5149 38.7847 35.5036 38.0885 34.246ZM27.2166 76.9649H33.7896L32.2633 68.6704L28.6753 68.6973L27.2166 76.9633V76.9649ZM41.2835 83.2198C41.3866 81.5798 41.1153 80.5718 39.7572 80.3649C33.8571 80.7567 27.4671 79.7803 21.6247 80.3396C20.0444 80.4913 19.5913 81.1201 19.7239 83.2213H41.2835V83.2198Z" fill="url(#paint0_linear_3314_9002)"/>
<path d="M11.7056 53.8715C12.4299 53.8715 13.017 53.1168 13.017 52.1858C13.017 51.2547 12.4299 50.5 11.7056 50.5C10.9814 50.5 10.3942 51.2547 10.3942 52.1858C10.3942 53.1168 10.9814 53.8715 11.7056 53.8715Z" fill="url(#paint1_linear_3314_9002)"/>
</g>
<defs>
<linearGradient id="paint0_linear_3314_9002" x1="0" y1="43.3083" x2="61" y2="43.3083" gradientUnits="userSpaceOnUse">
<stop stop-color="#AAAAAA"/>
<stop offset="1" stop-color="#232323"/>
</linearGradient>
<linearGradient id="paint1_linear_3314_9002" x1="10.3942" y1="52.1858" x2="13.0158" y2="52.1858" gradientUnits="userSpaceOnUse">
<stop stop-color="#AAAAAA"/>
<stop offset="1" stop-color="#232323"/>
</linearGradient>
<clipPath id="clip0_3314_9002">
<rect width="61" height="86.6165" fill="white"/>
</clipPath>
</defs>
</svg>
